<?xml version="1.0" encoding="utf-8"?>
<!-- Generator: Adobe Illustrator 25.4.1, SVG Export Plug-In . SVG Version: 6.00 Build 0)  -->
<svg version="1.1" id="Layer_1" xmlns="http://www.w3.org/2000/svg" xmlns:xlink="http://www.w3.org/1999/xlink" x="0px" y="0px"
	 viewBox="0 0 225 275" style="background-color:white" xml:space="preserve">
<style type="text/css">
	.st0{fill:none;stroke:#16191F;stroke-width:2;stroke-linecap:square;stroke-miterlimit:10;}
	.st1{fill:none;stroke:#232F3E;stroke-width:2;stroke-linecap:square;stroke-miterlimit:10;}
	.st2{fill:#EC7211;}
	.st3{fill:none;stroke:#EC7211;stroke-width:2;stroke-linecap:square;stroke-miterlimit:10;stroke-dasharray:3.8455,5.7683;}
	.st4{fill:none;stroke:#EC7211;stroke-width:2;stroke-linecap:square;stroke-miterlimit:10;stroke-dasharray:4.1077,6.1615;}
	.st5{fill:none;stroke:#EC7211;stroke-width:2;stroke-linecap:square;stroke-miterlimit:10;}
	.st6{display:none;fill:#FFFFFF;}
	.st7{display:none;}
	.st8{display:inline;}
	.st9{fill:#FFFFFF;}
	.st10{fill:none;}
	.st11{fill:none;stroke:#879596;stroke-width:2;stroke-linejoin:round;stroke-miterlimit:10;}
	.st12{fill:none;stroke:#858F94;stroke-width:2;stroke-linejoin:round;stroke-miterlimit:10;}
	.st13{fill:none;stroke:#879596;stroke-width:2;stroke-miterlimit:10;}
	.st14{fill:#16191F;}
	.st15{fill:none;stroke:#16191F;stroke-miterlimit:10;}
	.st16{fill:none;stroke:#879596;stroke-miterlimit:10;}

		.st17{clip-path:url(#SVGID_00000175281993642648908130000007126621325725614761_);fill:none;stroke:#879596;stroke-linecap:square;stroke-miterlimit:10;}
	.st18{fill:none;stroke:#EC7211;stroke-miterlimit:10;}

		.st19{clip-path:url(#SVGID_00000178187553958853896910000005188067636690451372_);fill:none;stroke:#EC7211;stroke-linecap:square;stroke-miterlimit:10;}

		.st20{clip-path:url(#SVGID_00000165231174278996731790000005065567987355628450_);fill:none;stroke:#879596;stroke-linecap:square;stroke-miterlimit:10;}
	.st21{fill:none;stroke:#16191F;stroke-linejoin:round;stroke-miterlimit:10;}
</style>
<path class="st0" d="M37.4,143.1h-12c-0.7,0-1.2-0.9-1.2-2v-28.2c0-1.1,0.5-2,1.2-2h61"/>
<path class="st1" d="M37.4,143.1"/>
<path class="st1" d="M111.2,143.1H98.5"/>
<path class="st1" d="M111.2,143.1"/>
<path class="st0" d="M128.8,110.9h59.8c0.7,0,1.2,0.9,1.2,2v28.2c0,1.1-0.6,2-1.2,2h-6.3"/>
<path class="st0" d="M180.2,153.3h-66.7c-1.1,0-2-0.9-2-2v-20.4c0-1.1,0.9-2,2-2h66.7c1.1,0,2,0.9,2,2v20.4
	C182.2,152.4,181.4,153.3,180.2,153.3z"/>
<path class="st0" d="M95.3,153.3h-55c-1.1,0-2-0.9-2-2v-20.4c0-1.1,0.9-2,2-2h55c1.1,0,2,0.9,2,2v20.4
	C97.3,152.4,96.4,153.3,95.3,153.3z"/>
<g>
	<path class="st2" d="M57.5,144.6v-3.5h-3.3v3.5h-1.8v-8.3h1.8v3.4h3.3v-3.4h1.8v8.3H57.5z"/>
	<path class="st2" d="M62.9,144.6v-6.9h-2.5v-1.4h6.9v1.4h-2.5v6.9H62.9z"/>
	<path class="st2" d="M70.5,144.6v-6.9H68v-1.4h6.9v1.4h-2.5v6.9H70.5z"/>
	<path class="st2" d="M77.7,141.6v3H76v-8.3h3.2c0.9,0,1.5,0.2,2.1,0.7s0.8,1.1,0.8,1.9c0,0.8-0.3,1.5-0.8,1.9
		c-0.5,0.5-1.2,0.7-2.1,0.7h-1.5V141.6z M77.7,140.2h1.2c0.4,0,0.7-0.1,0.9-0.3s0.3-0.5,0.3-1c0-0.4-0.1-0.7-0.3-1
		c-0.2-0.2-0.5-0.3-0.9-0.3h-1.2V140.2z"/>
</g>
<g>
	<path class="st2" d="M132.6,144.6v-3.5h-3.3v3.5h-1.8v-8.3h1.8v3.4h3.3v-3.4h1.8v8.3H132.6z"/>
	<path class="st2" d="M138,144.6v-6.9h-2.5v-1.4h6.9v1.4h-2.5v6.9H138z"/>
	<path class="st2" d="M145.7,144.6v-6.9h-2.5v-1.4h6.9v1.4h-2.5v6.9H145.7z"/>
	<path class="st2" d="M152.9,141.6v3h-1.8v-8.3h3.2c0.9,0,1.5,0.2,2.1,0.7s0.8,1.1,0.8,1.9c0,0.8-0.3,1.5-0.8,1.9
		c-0.5,0.5-1.2,0.7-2.1,0.7h-1.4V141.6z M152.9,140.2h1.2c0.4,0,0.7-0.1,0.9-0.3s0.3-0.5,0.3-1c0-0.4-0.1-0.7-0.3-1
		c-0.2-0.2-0.5-0.3-0.9-0.3h-1.2V140.2z"/>
	<path class="st2" d="M160.2,141c-0.7-0.3-1.2-0.6-1.5-1s-0.5-0.9-0.5-1.4c0-0.8,0.3-1.4,0.8-1.8c0.6-0.4,1.3-0.7,2.2-0.7
		c0.8,0,1.6,0.1,2.3,0.4v1.4c-0.8-0.2-1.5-0.4-2.2-0.4c-0.9,0-1.4,0.3-1.4,0.9c0,0.2,0.1,0.4,0.2,0.6c0.2,0.1,0.5,0.3,0.9,0.5
		l0.9,0.3c0.7,0.3,1.3,0.6,1.6,1s0.5,0.8,0.5,1.4c0,0.8-0.3,1.5-0.9,2c-0.6,0.5-1.4,0.7-2.4,0.7c-0.4,0-0.9,0-1.3-0.1
		c-0.4-0.1-0.8-0.2-1.2-0.3V143c0.4,0.1,0.8,0.2,1.3,0.3s0.9,0.1,1.2,0.1c0.5,0,0.8-0.1,1.1-0.3s0.4-0.4,0.4-0.7
		c0-0.2-0.1-0.4-0.2-0.6c-0.2-0.1-0.5-0.3-0.9-0.5L160.2,141z"/>
</g>
<g>
	<g>
		<path class="st3" d="M96.5,62.5c-4,10.7-6.3,20-0.7,23.3c14,8.2,30-1.7,26.5,41.2"/>
	</g>
</g>
<g>
	<g>
		<path class="st4" d="M117.8,156.5c-5.1,20.4-60.4,6.2-60.4,27.2"/>
		<path class="st5" d="M57.4,183.7c-0.2,0.7-0.5,1.2-0.9,1.8"/>
	</g>
</g>
<g>
	<path class="st6" d="M132.2,73c0.4,0,0.7-0.3,0.7-0.7V49.4c0-0.4-0.3-0.7-0.7-0.7H99.8c-0.4,0-0.7,0.3-0.7,0.7v23
		c0,0.4,0.3,0.7,0.7,0.7L132.2,73z"/>
	<g class="st7">
		<g class="st8">
			<g>
				<g>
					<g>
						<g>
							<g>
								<g>
									<path class="st9" d="M84.2,39.2c0-4.1,3.3-7.4,7.4-7.4s7.4,3.3,7.4,7.4s-3.3,7.4-7.4,7.4C87.6,46.6,84.2,43.3,84.2,39.2"/>
								</g>
							</g>
						</g>
						<path class="st9" d="M99,60.9H78.4C79.3,47,91.6,47.1,91.6,47.1s3.9-0.4,7.4,2.1"/>
					</g>
				</g>
			</g>
		</g>
	</g>
	<g>
		<g>
			<rect x="72.6" y="20.7" class="st10" width="63.4" height="63.4"/>
		</g>
		<g>
			<g>
				<g>
					<g>
						<g>
							<g>
								<g>
									<g>
										<g>
											<g>
												<g>
													<g>
														<line class="st11" x1="105.4" y1="73" x2="105.4" y2="53"/>
													</g>
												</g>
											</g>
											<line class="st11" x1="99" y1="52.9" x2="132.9" y2="52.9"/>
										</g>
									</g>
								</g>
							</g>
						</g>
						<path class="st11" d="M132.2,73c0.4,0,0.7-0.3,0.7-0.7V49.4c0-0.4-0.3-0.7-0.7-0.7H99.8c-0.4,0-0.7,0.3-0.7,0.7v23
							c0,0.4,0.3,0.7,0.7,0.7L132.2,73z"/>
					</g>
				</g>
				<line class="st12" x1="101.2" y1="50.8" x2="103.3" y2="50.8"/>
				<line class="st12" x1="104.3" y1="50.8" x2="106.4" y2="50.8"/>
				<line class="st12" x1="107.5" y1="50.8" x2="109.6" y2="50.8"/>
			</g>
			<g>
				<g>
					<g>
						<g>
							<g>
								<g>
									<g>
										<g>
											<path class="st13" d="M84.2,39.2c0-4.1,3.3-7.4,7.4-7.4s7.4,3.3,7.4,7.4s-3.3,7.4-7.4,7.4C87.6,46.6,84.2,43.3,84.2,39.2
												"/>
										</g>
									</g>
								</g>
								<path class="st13" d="M99,60.9H78.4C79.3,47,91.6,47.1,91.6,47.1s3.9-0.4,7.4,2.1"/>
							</g>
						</g>
					</g>
				</g>
			</g>
		</g>
	</g>
</g>
<g>
	<path class="st14" d="M102.8,113.9l-0.6-1.9h-2.8l-0.6,1.9H97l2.9-8.3h2l2.9,8.3H102.8z M99.8,110.7h2.1l-1.1-3.5L99.8,110.7z"/>
	<path class="st14" d="M105.8,113.9v-8.3h1.8v6.9h3.6v1.4H105.8z"/>
	<path class="st14" d="M112.3,113.9v-8.3h3c0.8,0,1.4,0.2,1.9,0.6s0.7,0.9,0.7,1.6c0,0.4-0.1,0.8-0.3,1.1c-0.2,0.3-0.5,0.5-0.8,0.7
		c0.5,0.2,0.9,0.4,1.2,0.8c0.3,0.3,0.4,0.8,0.4,1.3c0,0.7-0.3,1.3-0.8,1.7c-0.5,0.4-1.3,0.6-2.2,0.6L112.3,113.9L112.3,113.9z
		 M114,106.8v2.2h1c0.8,0,1.2-0.4,1.2-1.1s-0.4-1.1-1.1-1.1H114z M114,110.2v2.3h1.4c0.8,0,1.2-0.4,1.2-1.2c0-0.8-0.4-1.2-1.3-1.2
		L114,110.2L114,110.2z"/>
</g>
<g>
	<g id="ICONS_-_EDIT_9_">
		<path class="st15" d="M116.1,258.3c-0.1,0-0.3-0.1-0.3-0.1l-14.8-8.5c-0.2-0.1-0.3-0.3-0.3-0.6v-17.2c0-0.3,0.1-0.5,0.3-0.6
			l13.5-7.8c0.2-0.1,0.5-0.1,0.6,0c0.3,0.1,0.4,0.3,0.4,0.6v7.4c0,0.3-0.1,0.5-0.3,0.6l-6.8,3.9v9l7.6,4.4l6.7-3.9
			c0.2-0.1,0.5-0.1,0.7,0l6.4,3.7c0.3,0.2,0.5,0.6,0.3,0.9c-0.1,0.1-0.1,0.2-0.3,0.3l-13.5,7.8C116.4,258.2,116.3,258.3,116.1,258.3
			z"/>
		<path class="st15" d="M131.1,248.3c-0.1,0-0.3-0.1-0.3-0.1l-6.4-3.7c-0.2-0.1-0.3-0.3-0.3-0.6V236l-6.8-3.9
			c-0.2-0.1-0.3-0.3-0.3-0.6v-7.4c0-0.3,0.1-0.5,0.3-0.6c0.2-0.1,0.5-0.1,0.6,0l13.5,7.8c0.2,0.1,0.3,0.3,0.3,0.6v15.7
			c0,0.3-0.1,0.5-0.3,0.6C131.3,248.2,131.2,248.3,131.1,248.3z"/>
	</g>
	<g>
		<path class="st16" d="M133.7,198.4c1.4,2.1,2.2,4.7,2.2,7.4c0,7.6-6.2,13.7-13.8,13.7c-7.6,0-13.8-6.2-13.8-13.7
			s6.2-13.7,13.8-13.7c2.7,0,5.3,0.8,7.4,2.2"/>
		<path class="st16" d="M126.8,203.4c0.4,0.7,0.6,1.6,0.6,2.5c0,2.9-2.4,5.3-5.3,5.3s-5.3-2.4-5.3-5.3s2.4-5.3,5.3-5.3
			c0.9,0,1.7,0.2,2.5,0.6"/>
		<path class="st16" d="M129.8,200.2c1.2,1.6,1.9,3.5,1.9,5.6c0,5.3-4.3,9.5-9.5,9.5c-5.3,0-9.5-4.3-9.5-9.5s4.3-9.5,9.5-9.5
			c2.1,0,4,0.7,5.5,1.8"/>
		<polyline class="st16" points="133.4,194.6 125.7,202.3 122.1,205.8 		"/>
		<g>
			<polyline class="st16" points="136.2,194.6 133.4,194.6 133.4,191.7 			"/>
		</g>
		<g>
			<polyline class="st16" points="134.5,196.3 131.7,196.3 131.7,193.5 			"/>
		</g>
		<g>
			<polyline class="st16" points="132.7,198.1 129.9,198.1 129.9,195.3 			"/>
		</g>
	</g>
	<g>
		<path class="st16" d="M103.2,212.2c1,1.6,1.6,3.4,1.6,5.4c0,5.6-4.5,10.1-10.1,10.1s-10.1-4.5-10.1-10.1s4.5-10.1,10.1-10.1
			c2,0,3.9,0.6,5.4,1.6"/>
		<path class="st16" d="M98.1,215.8c0.3,0.5,0.4,1.2,0.4,1.8c0,2.1-1.7,3.9-3.9,3.9c-2.1,0-3.9-1.7-3.9-3.9s1.7-3.9,3.9-3.9
			c0.7,0,1.3,0.2,1.8,0.4"/>
		<path class="st16" d="M100.3,213.5c0.9,1.2,1.4,2.6,1.4,4.1c0,3.8-3.1,7-7,7s-7-3.1-7-7c0-3.8,3.1-7,7-7c1.5,0,2.9,0.5,4,1.3"/>
		<polyline class="st16" points="103,209.4 97.3,215 94.7,217.6 		"/>
		<g>
			<polyline class="st16" points="105,209.4 103,209.4 103,207.3 			"/>
		</g>
		<g>
			<polyline class="st16" points="103.7,210.7 101.7,210.7 101.7,208.6 			"/>
		</g>
		<g>
			<polyline class="st16" points="102.4,211.9 100.4,211.9 100.4,209.9 			"/>
		</g>
	</g>
	<g>
		<g>
			<g>
				<g>
					<defs>
						<path id="SVGID_1_" d="M151.4,216.2c0,13.4-5.5,23.6-16,30.2l-21.5-21.8L97,249.3c-13.5-5.7-20.7-17.5-20.7-33
							c0-20.7,16.8-37.5,37.5-37.5S151.4,195.5,151.4,216.2z"/>
					</defs>
					<clipPath id="SVGID_00000052102486042536765380000009480003717379701385_">
						<use xlink:href="#SVGID_1_"  style="overflow:visible;"/>
					</clipPath>

						<ellipse style="clip-path:url(#SVGID_00000052102486042536765380000009480003717379701385_);fill:none;stroke:#879596;stroke-linecap:square;stroke-miterlimit:10;" cx="114.1" cy="215.9" rx="34" ry="34"/>
				</g>
			</g>
		</g>
	</g>
</g>
<g>
	<g>
		<path class="st18" d="M50.1,193.5c1.4,2.1,2.2,4.7,2.2,7.4c0,7.6-6.2,13.8-13.8,13.8s-13.8-6.2-13.8-13.8s6.2-13.8,13.8-13.8
			c2.7,0,5.3,0.8,7.4,2.2"/>
		<path class="st18" d="M43.2,198.4c0.4,0.7,0.6,1.6,0.6,2.5c0,2.9-2.4,5.3-5.3,5.3s-5.3-2.4-5.3-5.3c0-2.9,2.4-5.3,5.3-5.3
			c0.9,0,1.7,0.2,2.5,0.6"/>
		<path class="st18" d="M46.2,195.2c1.2,1.6,1.9,3.5,1.9,5.6c0,5.3-4.3,9.5-9.5,9.5s-9.5-4.3-9.5-9.5s4.3-9.5,9.5-9.5
			c2.1,0,4,0.7,5.5,1.8"/>
		<polyline class="st18" points="49.8,189.6 42,197.4 38.5,200.9 		"/>
		<g>
			<polyline class="st18" points="52.6,189.6 49.8,189.6 49.8,186.8 			"/>
		</g>
		<g>
			<polyline class="st18" points="50.8,191.4 48,191.4 48,188.5 			"/>
		</g>
		<g>
			<polyline class="st18" points="49.1,193.1 46.2,193.1 46.2,190.3 			"/>
		</g>
	</g>
	<g>
		<g>
			<g>
				<g>
					<defs>
						<path id="SVGID_00000062875954506741423960000007321029661098774401_" d="M76.5,216.2c0,13.5-5.4,23.6-16,30.3l-21.8-21.8
							l-18.4,24.2c-13.6-5.7-19.4-17-19.4-32.7c0-20.9,16.9-37.8,37.8-37.8S76.5,195.3,76.5,216.2z"/>
					</defs>
					<clipPath id="SVGID_00000095313784585108718080000012251233484435065216_">
						<use xlink:href="#SVGID_00000062875954506741423960000007321029661098774401_"  style="overflow:visible;"/>
					</clipPath>

						<circle style="clip-path:url(#SVGID_00000095313784585108718080000012251233484435065216_);fill:none;stroke:#EC7211;stroke-linecap:square;stroke-miterlimit:10;" cx="38.9" cy="215.9" r="34.3"/>
				</g>
			</g>
		</g>
	</g>
	<g>
		<path class="st15" d="M54.9,252.8h-8c-0.3,0-0.5-0.1-0.6-0.4L35,228.8h-4.8c-0.4,0-0.6-0.3-0.6-0.6V221c0-0.4,0.3-0.6,0.6-0.6h10
			c0.3,0,0.5,0.1,0.6,0.4L52,244.4h2.9c0.4,0,0.6,0.3,0.6,0.6v7.1C55.5,252.5,55.2,252.8,54.9,252.8z"/>
		<path class="st15" d="M33.5,252.8H25c-0.2,0-0.5-0.1-0.5-0.3c-0.1-0.2-0.1-0.5,0-0.6l8.7-18.4c0.1-0.2,0.3-0.4,0.6-0.4l0,0
			c0.3,0,0.5,0.1,0.6,0.4l4.2,8.7c0.1,0.2,0.1,0.4,0,0.6l-4.6,9.7C33.9,252.7,33.7,252.8,33.5,252.8z"/>
	</g>
</g>
<path class="st5" d="M180.7,155.2H113c-2,0-3.6-1.3-3.6-3v-22c0-1.7,1.6-3,3.6-3h67.7c2,0,3.6,1.3,3.6,3v22
	C184.3,153.9,182.6,155.2,180.7,155.2z"/>
<g>
	<g>
		<path class="st16" d="M204.7,194.7c1.3,2.1,2.1,4.5,2.1,7.1c0,7.3-5.9,13.3-13.3,13.3c-7.3,0-13.3-5.9-13.3-13.3
			c0-7.3,5.9-13.3,13.3-13.3c2.6,0,5.1,0.8,7.1,2.1"/>
		<path class="st16" d="M198,199.4c0.4,0.7,0.6,1.5,0.6,2.4c0,2.8-2.3,5.1-5.1,5.1s-5.1-2.3-5.1-5.1s2.3-5.1,5.1-5.1
			c0.9,0,1.7,0.2,2.4,0.6"/>
		<path class="st16" d="M200.9,196.4c1.1,1.5,1.8,3.4,1.8,5.4c0,5.1-4.1,9.2-9.2,9.2s-9.2-4.1-9.2-9.2s4.1-9.2,9.2-9.2
			c2,0,3.8,0.6,5.3,1.7"/>
		<polyline class="st16" points="204.4,190.9 196.9,198.4 193.5,201.8 		"/>
		<g>
			<polyline class="st16" points="207.1,190.9 204.4,190.9 204.4,188.2 			"/>
		</g>
		<g>
			<polyline class="st16" points="205.4,192.6 202.7,192.6 202.7,189.9 			"/>
		</g>
		<g>
			<polyline class="st16" points="203.7,194.3 201,194.3 201,191.6 			"/>
		</g>
	</g>
	<g>
		<path class="st16" d="M175.7,206.9c0.9,1.3,1.4,2.9,1.4,4.6c0,4.8-3.9,8.6-8.6,8.6c-4.8,0-8.6-3.9-8.6-8.6c0-4.8,3.9-8.6,8.6-8.6
			c1.7,0,3.3,0.5,4.6,1.4"/>
		<path class="st16" d="M171.4,209.9c0.2,0.5,0.4,1,0.4,1.5c0,1.8-1.5,3.3-3.3,3.3s-3.3-1.5-3.3-3.3s1.5-3.3,3.3-3.3
			c0.6,0,1.1,0.1,1.5,0.4"/>
		<path class="st16" d="M173.3,208c0.7,1,1.2,2.2,1.2,3.5c0,3.3-2.7,6-6,6s-6-2.7-6-6s2.7-6,6-6c1.3,0,2.5,0.4,3.5,1.1"/>
		<polyline class="st16" points="175.5,204.4 170.7,209.3 168.5,211.5 		"/>
		<g>
			<polyline class="st16" points="177.3,204.4 175.5,204.4 175.5,202.7 			"/>
		</g>
		<g>
			<polyline class="st16" points="176.2,205.5 174.4,205.5 174.4,203.8 			"/>
		</g>
		<g>
			<polyline class="st16" points="175.1,206.6 173.3,206.6 173.3,204.9 			"/>
		</g>
	</g>
	<g>
		<g>
			<g>
				<g>
					<defs>
						<path id="SVGID_00000118382447852105290880000008092016662913865870_" d="M224.5,216c0,13.4-5.5,23.6-16,30.2L187,224.3
							L170.1,249c-13.5-5.7-20.7-17.5-20.7-33c0-20.7,16.8-37.5,37.5-37.5S224.5,195.3,224.5,216z"/>
					</defs>
					<clipPath id="SVGID_00000167364391242009959860000014776718420911816633_">
						<use xlink:href="#SVGID_00000118382447852105290880000008092016662913865870_"  style="overflow:visible;"/>
					</clipPath>

						<ellipse style="clip-path:url(#SVGID_00000167364391242009959860000014776718420911816633_);fill:none;stroke:#879596;stroke-linecap:square;stroke-miterlimit:10;" cx="187.2" cy="215.7" rx="34" ry="34"/>
				</g>
			</g>
		</g>
	</g>
	<g>
		<g>
			<g>
				<path class="st21" d="M177,225.5h25.5c0.7,0,1.3,0.6,1.3,1.3v25.5c0,0.7-0.6,1.3-1.3,1.3H177c-0.7,0-1.3-0.6-1.3-1.3v-25.5
					C175.7,226.1,176.3,225.5,177,225.5z"/>
				<path class="st21" d="M181.1,246.2v-13.4c0-1.1,0.9-2,2-2h13.4c1.1,0,2,0.9,2,2v13.4c0,1.1-0.9,2-2,2h-13.4
					C182,248.2,181.1,247.3,181.1,246.2z"/>
				<line class="st21" x1="171.3" y1="234" x2="175.7" y2="234"/>
				<line class="st21" x1="171.3" y1="228.2" x2="175.7" y2="228.2"/>
				<line class="st21" x1="171.3" y1="239.8" x2="175.7" y2="239.8"/>
				<line class="st21" x1="171.3" y1="245.6" x2="175.7" y2="245.6"/>
				<line class="st21" x1="171.3" y1="251.4" x2="175.7" y2="251.4"/>
				<line class="st21" x1="183.7" y1="258" x2="183.7" y2="253.6"/>
				<line class="st21" x1="177.9" y1="258" x2="177.9" y2="253.6"/>
				<line class="st21" x1="189.5" y1="258" x2="189.5" y2="253.6"/>
				<line class="st21" x1="195.3" y1="258" x2="195.3" y2="253.6"/>
				<line class="st21" x1="201.1" y1="258" x2="201.1" y2="253.6"/>
				<line class="st21" x1="183.7" y1="225.5" x2="183.7" y2="221"/>
				<line class="st21" x1="177.9" y1="225.5" x2="177.9" y2="221"/>
				<line class="st21" x1="189.5" y1="225.5" x2="189.5" y2="221"/>
				<line class="st21" x1="195.3" y1="225.5" x2="195.3" y2="221"/>
				<line class="st21" x1="201.1" y1="225.5" x2="201.1" y2="221"/>
				<line class="st21" x1="203.8" y1="234" x2="208.3" y2="234"/>
				<line class="st21" x1="203.8" y1="228.2" x2="208.3" y2="228.2"/>
				<line class="st21" x1="203.8" y1="239.8" x2="208.3" y2="239.8"/>
				<line class="st21" x1="203.8" y1="245.6" x2="208.3" y2="245.6"/>
				<line class="st21" x1="203.8" y1="251.4" x2="208.3" y2="251.4"/>
			</g>
		</g>
	</g>
</g>
</svg>
