<?xml version="1.0" encoding="utf-8"?>
<!-- Generator: Adobe Illustrator 25.3.1, SVG Export Plug-In . SVG Version: 6.00 Build 0)  -->
<svg version="1.1" id="Layer_1" xmlns="http://www.w3.org/2000/svg" xmlns:xlink="http://www.w3.org/1999/xlink" x="0px" y="0px"
	 viewBox="0 0 225 275" style="background-color:white" xml:space="preserve">
<style type="text/css">
	.st0{display:none;}
	.st1{display:inline;fill:#FFFFFF;stroke:#424143;stroke-miterlimit:10;}
	.st2{display:inline;fill:none;stroke:#424143;stroke-miterlimit:10;}
	.st3{display:inline;}
	.st4{fill:#FFFFFF;stroke:#424143;stroke-miterlimit:10;}
	.st5{display:none;fill:#FFFFFF;stroke:#424143;stroke-miterlimit:10;}
	.st6{display:none;fill:#FFFFFF;}
	.st7{fill:#FFFFFF;}
	.st8{fill:none;stroke:#424143;stroke-miterlimit:10;}
	.st9{clip-path:url(#SVGID_2_);fill:none;stroke:#F7981D;stroke-linecap:square;stroke-miterlimit:10;}
	.st10{fill:none;stroke:#959595;stroke-miterlimit:10;}
	.st11{fill:none;stroke:#F7981D;stroke-miterlimit:10;}
	.st12{fill:none;stroke:#232F3E;stroke-width:2;stroke-linecap:square;stroke-miterlimit:10;}
	.st13{fill:none;stroke:#404041;stroke-miterlimit:10;}
	.st14{fill:none;stroke:#F7981D;stroke-linecap:square;stroke-miterlimit:10;}
	.st15{fill:none;stroke:#F7981D;stroke-width:2;stroke-linecap:square;stroke-miterlimit:10;}
	.st16{fill:none;stroke:#F7981D;stroke-width:2;stroke-linecap:square;stroke-miterlimit:10;stroke-dasharray:4.0293,6.0439;}
	.st17{fill:none;stroke:#F7981D;stroke-width:2;stroke-linecap:square;stroke-miterlimit:10;stroke-dasharray:3.2245,4.8368;}
	.st18{fill:none;stroke:#F7981D;stroke-width:2;stroke-linecap:square;stroke-miterlimit:10;stroke-dasharray:3.5585,5.3377;}
	.st19{fill:none;stroke:#F79820;stroke-width:2;stroke-linecap:square;stroke-miterlimit:10;}
	.st20{fill:#231F20;}
	.st21{fill:none;stroke:#F79822;stroke-linejoin:round;stroke-miterlimit:10;}
	.st22{fill:none;}
	.st23{fill:none;stroke:#869196;stroke-width:2;stroke-linejoin:round;stroke-miterlimit:10;}
	.st24{fill:none;stroke:#858F94;stroke-width:2;stroke-linejoin:round;stroke-miterlimit:10;}
	.st25{fill:none;stroke:#869196;stroke-width:2;stroke-miterlimit:10;}
</style>
<g class="st0">
	<path class="st1" d="M77.6,232.7V225c0-1.8-1.5-3.3-3.3-3.3H66c-1.8,0-3.3,1.5-3.3,3.3v7.7h-3.5V225c0-3.7,3-6.8,6.8-6.8h8.4
		c3.7,0,6.8,3,6.8,6.8v7.7H77.6z"/>
	<path class="st2" d="M77.6,232.7V225c0-1.8-1.5-3.3-3.3-3.3H66c-1.8,0-3.3,1.5-3.3,3.3v7.9"/>
	<path class="st2" d="M59.2,232.7V225c0-3.7,3-6.8,6.8-6.8h8.4c3.7,0,6.8,3,6.8,6.8v7.9"/>
</g>
<g class="st0">
	<g class="st3">
		<g>
			<path class="st4" d="M84,257.1H56.3c-1.1,0-2.1-0.9-2.1-2.1v-20.3c0-1.1,0.9-2.1,2.1-2.1H84c1.1,0,2.1,0.9,2.1,2.1V255
				C86.1,256.2,85.2,257.1,84,257.1z"/>
		</g>
	</g>
</g>
<path class="st5" d="M71.7,243.5v-4.3c0-0.8-0.7-1.5-1.5-1.5c-1,0-1.5,0.5-1.5,1.5v4.3c-1.6,0.7-2.7,2.3-2.5,4.2
	c0.2,1.8,1.7,3.2,3.5,3.4c2.4,0.3,4.4-1.6,4.4-4C74.2,245.5,73.1,244.1,71.7,243.5z"/>
<path class="st6" d="M95.5,72.4c0.4,0,0.7-0.3,0.7-0.7V48.8c0-0.4-0.3-0.7-0.7-0.7H63.1c-0.4,0-0.7,0.3-0.7,0.7v23
	c0,0.4,0.3,0.7,0.7,0.7L95.5,72.4z"/>
<g class="st0">
	<g class="st3">
		<g>
			<g>
				<g>
					<g>
						<g>
							<g>
								<path class="st7" d="M47.5,38.6c0-4.1,3.3-7.4,7.4-7.4s7.4,3.3,7.4,7.4S59,46,54.9,46S47.5,42.7,47.5,38.6"/>
							</g>
						</g>
					</g>
					<path class="st7" d="M62.3,60.3H41.7c0.9-13.9,13.2-13.7,13.2-13.7s3.9-0.4,7.4,2.1"/>
				</g>
			</g>
		</g>
	</g>
</g>
<g>
	<g>
		<g>
			<g>
				<g>
					<polyline class="st8" points="159.5,250 151.4,250 151.4,242.8 160.5,242.8 					"/>
					<polyline class="st8" points="192.2,242.8 193.7,242.8 193.7,250 					"/>
				</g>
				<g>
					<polyline class="st8" points="172.8,257.1 159.5,257.1 159.5,250 164.1,250 					"/>
					<polyline class="st8" points="186.1,251 186.1,257.1 172.8,257.1 172.8,253.6 					"/>
					<line class="st8" x1="189.6" y1="250" x2="194.2" y2="250"/>
				</g>
				<g>
					<polyline class="st8" points="158,242.8 158,235.7 162.1,235.7 					"/>
					<polyline class="st8" points="193.2,235.7 200.4,235.7 200.4,242.8 193.7,242.8 					"/>
					<polyline class="st8" points="193.7,250 200.4,250 200.4,257.1 193.7,257.1 192.2,257.1 186.1,257.1 					"/>
				</g>
				<path class="st8" d="M166.1,247.7c0.2,0.2,0.5,0.4,0.8,0.6c0.3,0.2,0.7,0.4,1.1,0.7"/>
				<path class="st8" d="M170.2,249.8c1.2,0.6,2.5,1.1,4,1.7c0,0-3.2-8.1,1-15.5s2.3-16.6-6.6-18.2c0,0,5.5,4.3,2.5,12.5
					c0,0-3-5.4-6.5-5.4c0,0,2.6,6.6,0,10.6c-0.1,0.2-0.2,0.3-0.3,0.5c-2.1,3.6-1.3,8.1,1.5,10.9"/>
				<path class="st8" d="M179.7,231.5c-0.3,1.5-0.9,3-1.7,4.5"/>
				<path class="st8" d="M177.3,237.3c-3.2,7-0.4,14.2-0.4,14.2s11-0.9,13-8.7c2.7-10.2-2.6-13.1-2.6-13.1c-0.5,4.9-2.8,6.7-2.8,6.7
					c2-12.6-8.4-16.6-8.4-16.6l0,0c3.1,2.4,4.3,6.3,3.8,10.4"/>
			</g>
		</g>
	</g>
	<g>
		<g>
			<g>
				<defs>
					<path id="SVGID_1_" d="M169.9,201.5c0,16.7-11,31.5-24.1,39.8L123.1,212l-22.6,30.3c-14.7-8.3-23.7-20.7-24.2-40.7
						c-0.7-25.9,21-46.9,46.9-46.9S169.9,175.6,169.9,201.5z"/>
				</defs>
				<clipPath id="SVGID_2_">
					<use xlink:href="#SVGID_1_"  style="overflow:visible;"/>
				</clipPath>
				<circle class="st9" cx="123.3" cy="201.1" r="42.5"/>
			</g>
		</g>
	</g>
	<g>
		<path class="st10" d="M142.5,175.5c0.9,1.5,1.5,3.2,1.5,5.1c0,5.2-4.2,9.5-9.5,9.5s-9.5-4.2-9.5-9.5c0-5.2,4.2-9.5,9.5-9.5
			c1.9,0,3.6,0.5,5.1,1.5"/>
		<path class="st10" d="M137.8,178.9c0.3,0.5,0.4,1.1,0.4,1.7c0,2-1.6,3.6-3.6,3.6s-3.6-1.6-3.6-3.6s1.6-3.6,3.6-3.6
			c0.6,0,1.2,0.2,1.7,0.4"/>
		<path class="st10" d="M139.8,176.7c0.8,1.1,1.3,2.4,1.3,3.9c0,3.6-2.9,6.6-6.6,6.6s-6.6-2.9-6.6-6.6c0-3.6,2.9-6.6,6.6-6.6
			c1.4,0,2.7,0.4,3.8,1.2"/>
		<polyline class="st10" points="142.3,172.9 137,178.2 134.6,180.6 		"/>
	</g>
	<g>
		<polyline class="st10" points="144.3,172.9 142.3,172.9 142.3,170.9 		"/>
	</g>
	<g>
		<polyline class="st10" points="143.1,174.1 141.1,174.1 141.1,172.1 		"/>
	</g>
	<g>
		<polyline class="st10" points="141.9,175.3 139.9,175.3 139.9,173.3 		"/>
	</g>
	<path class="st11" d="M112.1,186.5c0.9,1.5,1.5,3.2,1.5,5.1c0,5.2-4.2,9.5-9.5,9.5c-5.2,0-9.5-4.2-9.5-9.5s4.2-9.5,9.5-9.5
		c1.9,0,3.6,0.5,5.1,1.5"/>
	<path class="st11" d="M107.3,189.9c0.3,0.5,0.4,1.1,0.4,1.7c0,2-1.6,3.6-3.6,3.6s-3.6-1.6-3.6-3.6s1.6-3.6,3.6-3.6
		c0.6,0,1.2,0.2,1.7,0.4"/>
	<path class="st11" d="M109.4,187.8c0.8,1.1,1.3,2.4,1.3,3.9c0,3.6-2.9,6.6-6.6,6.6c-3.6,0-6.6-2.9-6.6-6.6s2.9-6.6,6.6-6.6
		c1.4,0,2.7,0.4,3.8,1.2"/>
	<g>
		<polyline class="st11" points="111.9,183.9 106.5,189.2 104.1,191.6 		"/>
		<g>
			<polyline class="st11" points="113.8,183.9 111.9,183.9 111.9,181.9 			"/>
		</g>
		<g>
			<polyline class="st11" points="112.6,185.1 110.6,185.1 110.6,183.1 			"/>
		</g>
		<g>
			<polyline class="st11" points="111.4,186.3 109.4,186.3 109.4,184.4 			"/>
		</g>
	</g>
	<g>
		<polyline class="st10" points="151.3,198.3 149.8,198.3 149.8,196.8 		"/>
	</g>
	<g>
		<path class="st10" d="M149.9,200.4c0.7,1.1,1.2,2.5,1.2,3.9c0,4-3.3,7.3-7.3,7.3s-7.3-3.3-7.3-7.3s3.3-7.3,7.3-7.3
			c1.5,0,2.8,0.4,3.9,1.2"/>
		<path class="st10" d="M146.2,203c0.2,0.4,0.3,0.8,0.3,1.3c0,1.6-1.3,2.8-2.8,2.8c-1.6,0-2.8-1.3-2.8-2.8s1.3-2.8,2.8-2.8
			c0.5,0,0.9,0.1,1.3,0.3"/>
		<path class="st10" d="M147.8,201.3c0.6,0.8,1,1.9,1,3c0,2.8-2.3,5.1-5.1,5.1s-5.1-2.3-5.1-5.1s2.3-5.1,5.1-5.1
			c1.1,0,2.1,0.3,2.9,0.9"/>
		<polyline class="st10" points="149.8,198.3 145.6,202.5 143.7,204.4 		"/>
		<g>
			<polyline class="st10" points="150.3,199.3 148.8,199.3 148.8,197.8 			"/>
		</g>
		<g>
			<polyline class="st10" points="149.4,200.2 147.9,200.2 147.9,198.7 			"/>
		</g>
	</g>
	<path class="st12" d="M137.1,133.2H98.5c-1.1,0-2-0.9-2-2v-20.4c0-1.1,0.9-2,2-2h38.6c1.1,0,2,0.9,2,2v20.4
		C139.1,132.3,138.2,133.2,137.1,133.2z"/>
	<path class="st13" d="M58.9,127.8H31.1c-0.5,0-0.9-0.4-0.9-0.9V94.8c0-0.5,0.4-0.9,0.9-0.9h44.2c0.5,0,0.9,0.4,0.9,0.9v32.1
		c0,0.5-0.4,0.9-0.9,0.9h-5.4"/>
	<line class="st13" x1="67.6" y1="127.8" x2="60.7" y2="127.8"/>
	<g>
		<line class="st13" x1="39.4" y1="110.6" x2="52.6" y2="110.6"/>
		<circle class="st13" cx="55.5" cy="110.6" r="2.9"/>
		<line class="st13" x1="58.1" y1="110.6" x2="70.2" y2="110.6"/>
	</g>
	<g>
		<line class="st13" x1="39.4" y1="100.2" x2="46.9" y2="100.2"/>
		<circle class="st13" cx="49.7" cy="100.2" r="2.9"/>
		<line class="st13" x1="52.6" y1="100.2" x2="70.4" y2="100.2"/>
	</g>
	<g>
		<line class="st14" x1="39.4" y1="120.3" x2="43.4" y2="120.3"/>
		<circle class="st14" cx="46.3" cy="120.9" r="2.9"/>
		<line class="st14" x1="49.2" y1="120.3" x2="69.9" y2="120.3"/>
	</g>
	<line class="st13" x1="35.4" y1="100.2" x2="37.1" y2="100.2"/>
	<line class="st13" x1="35.4" y1="110.6" x2="37.1" y2="110.6"/>
	<line class="st14" x1="35.4" y1="120.3" x2="37.1" y2="120.3"/>
	<polyline class="st13" points="67.4,107.4 70.5,110.5 67.4,113.8 	"/>
	<polyline class="st13" points="67.4,97 70.5,100.1 67.4,103.4 	"/>
	<polyline class="st14" points="67.6,117.1 70.7,120.2 67.6,123.6 	"/>
	<g>
		<g>
			<path class="st15" d="M28,114.1c-0.6-0.3-1.2-0.6-1.8-0.9"/>
			<path class="st16" d="M21.4,109.6C9.5,97,23.7,71.4,55.8,63.7"/>
			<path class="st15" d="M58.7,63c0.6-0.1,1.3-0.3,2-0.4"/>
		</g>
	</g>
	<g>
		<g>
			<path class="st15" d="M94.6,119.3c-0.6,0-1.3,0-2,0"/>
			<path class="st17" d="M87.8,119.3c-1.9,0-3.9,0-5.6,0"/>
			<path class="st15" d="M79.7,119.3c-0.8,0-1.5,0-2,0"/>
		</g>
	</g>
	<g>
		<g>
			<line class="st15" x1="142.2" y1="119.2" x2="144.2" y2="119.2"/>
			<line class="st18" x1="149.5" y1="119.2" x2="164.6" y2="119.2"/>
			<line class="st15" x1="167.3" y1="119.2" x2="169.3" y2="119.2"/>
		</g>
	</g>
	<path class="st15" d="M137.9,135H97.6c-1.7,0-3-1.3-3-3v-22c0-1.7,1.3-3,3-3h40.3c1.7,0,3,1.3,3,3v22
		C140.9,133.7,139.6,135,137.9,135z"/>
	<line class="st12" x1="121.4" y1="157.3" x2="121.4" y2="134.3"/>
	<g>
		<line class="st19" x1="119.4" y1="135.8" x2="119.4" y2="157.8"/>
	</g>
	<path class="st8" d="M71.7,243.5v-4.3c0-0.8-0.7-1.5-1.5-1.5c-1,0-1.5,0.5-1.5,1.5v4.3c-1.6,0.7-2.7,2.3-2.5,4.2
		c0.2,1.8,1.7,3.2,3.5,3.4c2.4,0.3,4.4-1.6,4.4-4C74.2,245.5,73.1,244.1,71.7,243.5z"/>
	<g>
		<path class="st8" d="M77.6,232.7V225c0-1.8-1.5-3.3-3.3-3.3H66c-1.8,0-3.3,1.5-3.3,3.3v7.7"/>
		<path class="st8" d="M59.2,232.7V225c0-3.7,3-6.8,6.8-6.8h8.4c3.7,0,6.8,3,6.8,6.8v7.7"/>
	</g>
	<g>
		<g>
			<g>
				<path class="st8" d="M84,257.1H56.3c-1.1,0-2.1-0.9-2.1-2.1v-20.3c0-1.1,0.9-2.1,2.1-2.1H84c1.1,0,2.1,0.9,2.1,2.1V255
					C86.1,256.2,85.2,257.1,84,257.1z"/>
			</g>
		</g>
	</g>
	<g>
		<g>
			<path class="st8" d="M108.1,260.5v-41.2c0-0.6,0.5-1.1,1.2-1.1H129l10.4,10v32.3c0,0.6-0.5,1.1-1.2,1.1h-28.9
				C108.6,261.6,108.1,261.1,108.1,260.5z"/>
			<polyline class="st8" points="129.3,218.4 129.3,228.2 139.3,228.2 			"/>
		</g>
	</g>
	<g>
		<line class="st8" x1="122" y1="240.4" x2="134.9" y2="240.4"/>
		<line class="st8" x1="122" y1="251.6" x2="134.9" y2="251.6"/>
		<line class="st8" x1="122" y1="234.9" x2="134.9" y2="234.9"/>
		<line class="st8" x1="122" y1="246" x2="134.9" y2="246"/>
		<line class="st8" x1="122" y1="229.3" x2="125.9" y2="229.3"/>
		<polyline class="st8" points="114.2,228.8 115.8,230.4 119.8,226.4 		"/>
		<polyline class="st8" points="114.2,252.2 115.8,253.8 119.8,249.8 		"/>
		<line class="st8" x1="114.5" y1="237.9" x2="118.9" y2="242.4"/>
		<line class="st8" x1="118.9" y1="237.9" x2="114.5" y2="242.4"/>
	</g>
	<path class="st20" d="M106.1,124.1c0.2,0,0.5,0,0.9-0.1v-2h-1.6v-1.3h3.2v4.2c-0.4,0.2-0.8,0.4-1.3,0.5s-1,0.2-1.6,0.2
		c-1.3,0-2.3-0.4-3-1.1s-1-1.8-1-3.1c0-1.4,0.4-2.5,1.1-3.3c0.7-0.7,1.8-1.1,3.2-1.1c0.9,0,1.8,0.2,2.4,0.5v1.4
		c-0.8-0.3-1.6-0.4-2.2-0.4c-0.9,0-1.5,0.2-2,0.7c-0.4,0.4-0.6,1.1-0.6,2.1v0.2c0,0.9,0.2,1.6,0.6,2.1
		C104.5,123.9,105.2,124.1,106.1,124.1z"/>
	<path class="st20" d="M116.4,125.4l-1.3-5.9l-1.3,5.9h-2l-2.3-8.3h2l1.3,6.4l1.3-6.2h1.9l1.3,6.1l1.3-6.3h1.9l-2.3,8.3H116.4z"/>
	<path class="st20" d="M121.8,125.4v-8.3h1.8v6.9h3.6v1.4H121.8z"/>
	<path class="st20" d="M128.3,125.4v-8.3h3c0.8,0,1.4,0.2,1.9,0.6s0.7,0.9,0.7,1.6c0,0.4-0.1,0.8-0.3,1.1c-0.2,0.3-0.5,0.5-0.8,0.7
		c0.5,0.2,0.9,0.4,1.2,0.8c0.3,0.3,0.4,0.8,0.4,1.3c0,0.7-0.3,1.3-0.8,1.7c-0.5,0.4-1.3,0.6-2.2,0.6L128.3,125.4L128.3,125.4z
		 M130,118.3v2.2h1c0.8,0,1.2-0.4,1.2-1.1s-0.4-1.1-1.1-1.1H130z M130,121.8v2.3h1.4c0.8,0,1.2-0.4,1.2-1.2c0-0.8-0.4-1.2-1.3-1.2
		L130,121.8L130,121.8z"/>
	<g>
		<g>
			<path class="st21" d="M172.8,104.6h25.5c0.7,0,1.3,0.6,1.3,1.3v25.5c0,0.7-0.6,1.3-1.3,1.3h-25.5c-0.7,0-1.3-0.6-1.3-1.3v-25.5
				C171.5,105.2,172.1,104.6,172.8,104.6z"/>
			<path class="st21" d="M176.9,125.3v-13.4c0-1.1,0.9-2,2-2h13.4c1.1,0,2,0.9,2,2v13.4c0,1.1-0.9,2-2,2h-13.4
				C177.8,127.3,176.9,126.4,176.9,125.3z"/>
			<line class="st21" x1="167.1" y1="113.1" x2="171.5" y2="113.1"/>
			<line class="st21" x1="167.1" y1="107.3" x2="171.5" y2="107.3"/>
			<line class="st21" x1="167.1" y1="118.9" x2="171.5" y2="118.9"/>
			<line class="st21" x1="167.1" y1="124.7" x2="171.5" y2="124.7"/>
			<line class="st21" x1="167.1" y1="130.4" x2="171.5" y2="130.4"/>
			<line class="st21" x1="179.5" y1="137.1" x2="179.5" y2="132.7"/>
			<line class="st21" x1="173.7" y1="137.1" x2="173.7" y2="132.7"/>
			<line class="st21" x1="185.3" y1="137.1" x2="185.3" y2="132.7"/>
			<line class="st21" x1="191.1" y1="137.1" x2="191.1" y2="132.7"/>
			<line class="st21" x1="196.9" y1="137.1" x2="196.9" y2="132.7"/>
			<line class="st21" x1="179.5" y1="104.6" x2="179.5" y2="100.1"/>
			<line class="st21" x1="173.7" y1="104.6" x2="173.7" y2="100.1"/>
			<line class="st21" x1="185.3" y1="104.6" x2="185.3" y2="100.1"/>
			<line class="st21" x1="191.1" y1="104.6" x2="191.1" y2="100.1"/>
			<line class="st21" x1="196.9" y1="104.6" x2="196.9" y2="100.1"/>
			<line class="st21" x1="199.6" y1="113.1" x2="204.1" y2="113.1"/>
			<line class="st21" x1="199.6" y1="107.3" x2="204.1" y2="107.3"/>
			<line class="st21" x1="199.6" y1="118.9" x2="204.1" y2="118.9"/>
			<line class="st21" x1="199.6" y1="124.7" x2="204.1" y2="124.7"/>
			<line class="st21" x1="199.6" y1="130.4" x2="204.1" y2="130.4"/>
		</g>
	</g>
	<g>
		<g>
			<rect x="35.9" y="20.1" class="st22" width="63.4" height="63.4"/>
		</g>
		<g>
			<g>
				<g>
					<g>
						<g>
							<g>
								<g>
									<g>
										<g>
											<g>
												<g>
													<g>
														<line class="st23" x1="68.7" y1="72.4" x2="68.7" y2="52.4"/>
													</g>
												</g>
											</g>
											<line class="st23" x1="62.3" y1="52.4" x2="96.2" y2="52.4"/>
										</g>
									</g>
								</g>
							</g>
						</g>
						<path class="st23" d="M95.5,72.4c0.4,0,0.7-0.3,0.7-0.7V48.8c0-0.4-0.3-0.7-0.7-0.7H63.1c-0.4,0-0.7,0.3-0.7,0.7v23
							c0,0.4,0.3,0.7,0.7,0.7L95.5,72.4z"/>
					</g>
				</g>
				<line class="st24" x1="64.4" y1="50.2" x2="66.6" y2="50.2"/>
				<line class="st24" x1="67.6" y1="50.2" x2="69.7" y2="50.2"/>
				<line class="st24" x1="70.8" y1="50.2" x2="72.9" y2="50.2"/>
			</g>
			<g>
				<g>
					<g>
						<g>
							<g>
								<g>
									<g>
										<g>
											<path class="st25" d="M47.5,38.6c0-4.1,3.3-7.4,7.4-7.4s7.4,3.3,7.4,7.4S59,46,54.9,46S47.5,42.7,47.5,38.6"/>
										</g>
									</g>
								</g>
								<path class="st25" d="M62.3,60.3H41.7c0.9-13.9,13.2-13.7,13.2-13.7s3.9-0.4,7.4,2.1"/>
							</g>
						</g>
					</g>
				</g>
			</g>
		</g>
	</g>
</g>
</svg>
