<?xml version="1.0" encoding="utf-8"?>
<!-- Generator: Adobe Illustrator 25.3.1, SVG Export Plug-In . SVG Version: 6.00 Build 0)  -->
<svg version="1.1" id="Layer_1" xmlns="http://www.w3.org/2000/svg" xmlns:xlink="http://www.w3.org/1999/xlink" x="0px" y="0px"
	 viewBox="0 0 225 275" style="background-color:white" xml:space="preserve">
<style type="text/css">
	.st0{fill:none;stroke:#F79820;stroke-width:2;stroke-linecap:square;stroke-linejoin:round;stroke-miterlimit:10;}
	.st1{fill:none;stroke:#B6B6B7;stroke-linecap:square;stroke-linejoin:round;stroke-miterlimit:10;}
	.st2{fill:none;stroke:#232F3E;stroke-width:2;stroke-linecap:square;stroke-miterlimit:10;}
	.st3{fill:none;stroke:#232F3E;stroke-miterlimit:10;}
	.st4{fill:none;stroke:#959595;stroke-miterlimit:10;}
	.st5{fill:none;stroke:#232F3E;stroke-linejoin:round;stroke-miterlimit:10;}
	.st6{fill:none;stroke:#F79820;stroke-miterlimit:10;}
	.st7{fill:none;stroke:#F79820;stroke-width:2;stroke-linecap:square;stroke-miterlimit:10;}
	.st8{fill:none;stroke:#F79820;stroke-width:2;stroke-linecap:square;stroke-miterlimit:10;stroke-dasharray:3.6629,5.4943;}
	.st9{fill:#F79820;}
	.st10{clip-path:url(#SVGID_2_);fill:none;stroke:#959595;stroke-linecap:square;stroke-miterlimit:10;}
	.st11{clip-path:url(#SVGID_4_);fill:none;stroke:#F79820;stroke-linecap:square;stroke-miterlimit:10;}
	.st12{fill:none;stroke:#F7981D;stroke-width:2;stroke-linecap:square;stroke-miterlimit:10;}
	.st13{clip-path:url(#SVGID_6_);fill:none;stroke:#F79820;stroke-linecap:square;stroke-miterlimit:10;}
	.st14{fill:none;stroke:#232F3E;stroke-linecap:square;stroke-miterlimit:10;}
	.st15{fill:#231F20;}
	.st16{display:none;fill:#FFFFFF;}
	.st17{display:none;}
	.st18{display:inline;}
	.st19{fill:#FFFFFF;}
	.st20{fill:none;}
	.st21{fill:none;stroke:#869196;stroke-width:2;stroke-linejoin:round;stroke-miterlimit:10;}
	.st22{fill:none;stroke:#858F94;stroke-width:2;stroke-linejoin:round;stroke-miterlimit:10;}
	.st23{fill:none;stroke:#869196;stroke-width:2;stroke-miterlimit:10;}
	.st24{fill:none;stroke:#F79820;stroke-width:2;stroke-linecap:square;stroke-miterlimit:10;stroke-dasharray:4.1892,6.2838;}
	.st25{fill-rule:evenodd;clip-rule:evenodd;fill:#959595;}
	.st26{fill:none;stroke:#F79820;stroke-width:2;stroke-linecap:square;stroke-miterlimit:10;stroke-dasharray:4,6;}
	.st27{fill:none;stroke:#232F3E;stroke-width:2;stroke-miterlimit:10;}
	.st28{fill:none;stroke:#F79820;stroke-width:2;stroke-linecap:square;stroke-miterlimit:10;stroke-dasharray:4.1283,6.1924;}
	.st29{fill:none;stroke:#F79820;stroke-width:2;stroke-linecap:square;stroke-miterlimit:10;stroke-dasharray:4.1608,6.2413;}
</style>
<g>
	<path class="st0" d="M189.3,78.1h-54.2c-2.2,0-4-1.8-4-4V34.3c0-2.2,1.8-4,4-4h54.2c2.2,0,4,1.8,4,4v39.8
		C193.3,76.3,191.5,78.1,189.3,78.1z"/>
	<path class="st1" d="M92.2,97.2h30.6"/>
	<path class="st1" d="M69.1,97.2h12.8"/>
	<path class="st1" d="M134.9,97.2h82.8c1.1,0,2,0.9,2,2v168.3c0,1.2-0.9,2-2,2H8.3c-1.1,0-2-0.9-2-2V99.2c0-1.1,0.9-2,2-2h30.2"/>
	<path class="st2" d="M15.2,139.2h-2.4c-0.8,0-1.4-0.9-1.4-2V109c0-1.1,0.6-2,1.4-2h67.3"/>
	<path class="st2" d="M15.2,139.2"/>
	<path class="st2" d="M79.6,139.2H64.8"/>
	<path class="st2" d="M147.7,139.2h-18.3"/>
	<path class="st2" d="M128.9,107h76.6c0.8,0,1.4,0.9,1.4,2v28.2c0,1.1-0.6,2-1.4,2h-6.4"/>
	<path class="st2" d="M127.4,152.4H82.1c-1.1,0-2-0.9-2-2V130c0-1.1,0.9-2,2-2h45.3c1.1,0,2,0.9,2,2v20.4
		C129.4,151.5,128.5,152.4,127.4,152.4z"/>
	<path class="st2" d="M62.4,152.4H17.7c-1.1,0-2-0.9-2-2V130c0-1.1,0.9-2,2-2h44.7c1.1,0,2,0.9,2,2v20.4
		C64.4,151.5,63.5,152.4,62.4,152.4z"/>
	<path class="st3" d="M115.1,239.7c-0.1,0-0.3-0.1-0.3-0.1l-14.8-8.5c-0.2-0.1-0.3-0.3-0.3-0.6v-17.2c0-0.3,0.1-0.5,0.3-0.6
		l13.5-7.8c0.2-0.1,0.5-0.1,0.6,0c0.3,0.1,0.4,0.3,0.4,0.6v7.4c0,0.3-0.1,0.5-0.3,0.6l-6.8,3.9v9l7.6,4.4l6.7-3.9
		c0.2-0.1,0.5-0.1,0.7,0l6.4,3.7c0.3,0.2,0.5,0.6,0.3,0.9c-0.1,0.1-0.1,0.2-0.3,0.3l-13.5,7.8C115.4,239.6,115.2,239.7,115.1,239.7z
		"/>
	<path class="st3" d="M130.1,229.7c-0.1,0-0.3-0.1-0.3-0.1l-6.4-3.7c-0.2-0.1-0.3-0.3-0.3-0.6v-7.9l-6.8-3.9
		c-0.2-0.1-0.3-0.3-0.3-0.6v-7.4c0-0.3,0.1-0.5,0.3-0.6s0.5-0.1,0.6,0l13.5,7.8c0.2,0.1,0.3,0.3,0.3,0.6V229c0,0.3-0.1,0.5-0.3,0.6
		C130.3,229.6,130.2,229.7,130.1,229.7z"/>
	<path class="st4" d="M132.7,179.9c1.4,2.1,2.2,4.7,2.2,7.4c0,7.6-6.2,13.7-13.8,13.7c-7.6,0-13.8-6.2-13.8-13.7
		c0-7.6,6.2-13.7,13.8-13.7c2.7,0,5.3,0.8,7.4,2.2"/>
	<path class="st4" d="M125.8,184.8c0.4,0.7,0.6,1.6,0.6,2.5c0,2.9-2.4,5.3-5.3,5.3s-5.3-2.4-5.3-5.3s2.4-5.3,5.3-5.3
		c0.9,0,1.7,0.2,2.5,0.6"/>
	<path class="st4" d="M128.8,181.6c1.2,1.6,1.9,3.5,1.9,5.6c0,5.3-4.3,9.5-9.5,9.5s-9.5-4.3-9.5-9.5s4.3-9.5,9.5-9.5
		c2.1,0,4,0.7,5.5,1.8"/>
	<polyline class="st4" points="132.4,176 124.6,183.7 121.1,187.3 	"/>
	<polyline class="st4" points="135.2,176 132.4,176 132.4,173.2 	"/>
	<polyline class="st4" points="133.5,177.7 130.6,177.7 130.6,174.9 	"/>
	<polyline class="st4" points="131.7,179.5 128.9,179.5 128.9,176.7 	"/>
	<g>
		<g>
			<g>
				<path class="st5" d="M171,228.6h25.5c0.7,0,1.3,0.6,1.3,1.3v25.5c0,0.7-0.6,1.3-1.3,1.3H171c-0.7,0-1.3-0.6-1.3-1.3v-25.5
					C169.7,229.2,170.3,228.6,171,228.6z"/>
				<path class="st5" d="M175,249.4V236c0-1.1,0.9-2,2-2h13.4c1.1,0,2,0.9,2,2v13.4c0,1.1-0.9,2-2,2H177
					C175.9,251.4,175,250.5,175,249.4z"/>
				<line class="st5" x1="165.2" y1="237.1" x2="169.7" y2="237.1"/>
				<line class="st5" x1="165.2" y1="231.3" x2="169.7" y2="231.3"/>
				<line class="st5" x1="165.2" y1="242.9" x2="169.7" y2="242.9"/>
				<line class="st5" x1="165.2" y1="248.7" x2="169.7" y2="248.7"/>
				<line class="st5" x1="165.2" y1="254.5" x2="169.7" y2="254.5"/>
				<line class="st5" x1="177.7" y1="261.2" x2="177.7" y2="256.7"/>
				<line class="st5" x1="171.9" y1="261.2" x2="171.9" y2="256.7"/>
				<line class="st5" x1="183.5" y1="261.2" x2="183.5" y2="256.7"/>
				<line class="st5" x1="189.3" y1="261.2" x2="189.3" y2="256.7"/>
				<line class="st5" x1="195.1" y1="261.2" x2="195.1" y2="256.7"/>
				<line class="st5" x1="177.7" y1="228.6" x2="177.7" y2="224.2"/>
				<line class="st5" x1="171.9" y1="228.6" x2="171.9" y2="224.2"/>
				<line class="st5" x1="183.5" y1="228.6" x2="183.5" y2="224.2"/>
				<line class="st5" x1="189.3" y1="228.6" x2="189.3" y2="224.2"/>
				<line class="st5" x1="195.1" y1="228.6" x2="195.1" y2="224.2"/>
				<line class="st5" x1="197.8" y1="237.1" x2="202.2" y2="237.1"/>
				<line class="st5" x1="197.8" y1="231.3" x2="202.2" y2="231.3"/>
				<line class="st5" x1="197.8" y1="242.9" x2="202.2" y2="242.9"/>
				<line class="st5" x1="197.8" y1="248.7" x2="202.2" y2="248.7"/>
				<line class="st5" x1="197.8" y1="254.5" x2="202.2" y2="254.5"/>
			</g>
		</g>
	</g>
	<g>
		<path class="st6" d="M181.4,195.6c1.1,1.8,1.8,3.8,1.8,6.1c0,6.2-5,11.3-11.3,11.3c-6.2,0-11.3-5-11.3-11.3
			c0-6.2,5-11.3,11.3-11.3c2.2,0,4.3,0.7,6.1,1.8"/>
		<path class="st6" d="M175.7,199.6c0.3,0.6,0.5,1.3,0.5,2c0,2.4-1.9,4.3-4.3,4.3c-2.4,0-4.3-1.9-4.3-4.3c0-2.4,1.9-4.3,4.3-4.3
			c0.7,0,1.4,0.2,2,0.5"/>
		<path class="st6" d="M178.2,197c1,1.3,1.5,2.9,1.5,4.6c0,4.3-3.5,7.8-7.8,7.8s-7.8-3.5-7.8-7.8s3.5-7.8,7.8-7.8
			c1.7,0,3.2,0.5,4.5,1.4"/>
		<polyline class="st6" points="181.1,192.4 174.8,198.8 171.9,201.7 		"/>
		<g>
			<polyline class="st6" points="183.5,192.4 181.1,192.4 181.1,190.1 			"/>
		</g>
		<g>
			<polyline class="st6" points="182,193.9 179.7,193.9 179.7,191.5 			"/>
		</g>
		<g>
			<polyline class="st6" points="180.6,195.3 178.3,195.3 178.3,193 			"/>
		</g>
	</g>
	<g>
		<path class="st4" d="M206.3,206c1.1,1.7,1.7,3.6,1.7,5.7c0,5.9-4.8,10.6-10.6,10.6s-10.6-4.8-10.6-10.6s4.8-10.6,10.6-10.6
			c2.1,0,4.1,0.6,5.7,1.7"/>
		<path class="st4" d="M201,209.8c0.3,0.6,0.5,1.2,0.5,1.9c0,2.3-1.8,4.1-4.1,4.1s-4.1-1.8-4.1-4.1s1.8-4.1,4.1-4.1
			c0.7,0,1.3,0.2,1.9,0.5"/>
		<path class="st4" d="M203.3,207.3c0.9,1.2,1.4,2.7,1.4,4.4c0,4.1-3.3,7.4-7.4,7.4s-7.4-3.3-7.4-7.4s3.3-7.4,7.4-7.4
			c1.6,0,3.1,0.5,4.3,1.4"/>
		<polyline class="st4" points="206.1,203 200.1,209 197.4,211.7 		"/>
		<g>
			<polyline class="st4" points="208.3,203 206.1,203 206.1,200.8 			"/>
		</g>
		<g>
			<polyline class="st4" points="206.9,204.3 204.7,204.3 204.7,202.1 			"/>
		</g>
		<g>
			<polyline class="st4" points="205.5,205.7 203.4,205.7 203.4,203.5 			"/>
		</g>
	</g>
	<g>
		<g>
			<line class="st7" x1="173" y1="155.1" x2="173" y2="157.1"/>
			<line class="st8" x1="173" y1="162.6" x2="173" y2="178.1"/>
			<line class="st7" x1="173" y1="180.9" x2="173" y2="182.9"/>
		</g>
	</g>
	<path class="st4" d="M102.2,193.6c1,1.6,1.6,3.4,1.6,5.4c0,5.6-4.5,10.1-10.1,10.1s-10.1-4.5-10.1-10.1s4.5-10,10.1-10
		c2,0,3.9,0.6,5.4,1.6"/>
	<path class="st4" d="M97.1,197.2c0.3,0.5,0.4,1.2,0.4,1.8c0,2.1-1.7,3.9-3.9,3.9c-2.1,0-3.9-1.7-3.9-3.9s1.7-3.9,3.9-3.9
		c0.7,0,1.3,0.2,1.8,0.4"/>
	<path class="st4" d="M99.3,194.9c0.9,1.2,1.4,2.6,1.4,4.1c0,3.8-3.1,7-7,7c-3.8,0-7-3.1-7-7c0-3.8,3.1-7,7-7c1.5,0,2.9,0.5,4,1.3"
		/>
	<polyline class="st4" points="101.9,190.8 96.3,196.5 93.7,199.1 	"/>
	<polyline class="st4" points="104,190.8 101.9,190.8 101.9,188.7 	"/>
	<polyline class="st4" points="102.7,192.1 100.6,192.1 100.6,190 	"/>
	<polyline class="st4" points="101.4,193.4 99.4,193.4 99.4,191.3 	"/>
	<g>
		<path class="st9" d="M29.9,143.7v-6.9h-2.5v-1.4h6.9v1.4h-2.5v6.9H29.9z"/>
		<path class="st9" d="M41.2,143.5c-0.6,0.2-1.4,0.4-2.2,0.4c-1.4,0-2.4-0.4-3.1-1.1c-0.7-0.7-1-1.8-1-3.2s0.4-2.5,1.1-3.2
			c0.7-0.8,1.8-1.1,3.1-1.1c0.7,0,1.4,0.1,2,0.3v1.4c-0.7-0.2-1.3-0.2-1.8-0.2c-0.8,0-1.5,0.2-1.9,0.7c-0.4,0.4-0.6,1.1-0.6,2v0.3
			c0,0.9,0.2,1.6,0.6,2s1,0.7,1.8,0.7c0.5,0,1.1-0.1,2-0.3C41.2,142.2,41.2,143.5,41.2,143.5z"/>
		<path class="st9" d="M44.2,140.7v3h-1.8v-8.3h3.2c0.9,0,1.5,0.2,2.1,0.7s0.8,1.1,0.8,1.9c0,0.8-0.3,1.5-0.8,1.9
			c-0.5,0.5-1.2,0.7-2.1,0.7h-1.4V140.7z M44.2,139.3h1.2c0.4,0,0.7-0.1,0.9-0.3s0.3-0.5,0.3-1c0-0.4-0.1-0.7-0.3-1
			c-0.2-0.2-0.5-0.3-0.9-0.3h-1.2V139.3z"/>
	</g>
	<g>
		<path class="st9" d="M97.3,135.8h1.8v5.3c0,1-0.3,1.8-0.9,2.4s-1.4,0.9-2.5,0.9s-1.9-0.3-2.5-0.8c-0.6-0.6-0.9-1.4-0.9-2.4v-5.3
			H94v5.3c0,0.6,0.1,1,0.4,1.3s0.7,0.4,1.2,0.4s0.9-0.1,1.2-0.4c0.3-0.3,0.4-0.7,0.4-1.3v-5.4H97.3z"/>
		<path class="st9" d="M100.9,144.1v-8.3h3c1.2,0,2.2,0.4,2.9,1.1c0.7,0.7,1,1.7,1,3.1c0,1.3-0.3,2.4-1,3.1s-1.6,1.1-2.8,1.1h-3.1
			V144.1z M102.7,137.2v5.5h1c1.4,0,2.2-0.9,2.2-2.7v-0.2c0-1.8-0.7-2.6-2.2-2.6H102.7z"/>
		<path class="st9" d="M111.2,141v3h-1.8v-8.3h3.2c0.9,0,1.5,0.2,2.1,0.7s0.8,1.1,0.8,1.9c0,0.8-0.3,1.5-0.8,1.9
			c-0.5,0.5-1.2,0.7-2.1,0.7h-1.4C111.2,140.9,111.2,141,111.2,141z M111.2,139.7h1.2c0.4,0,0.7-0.1,0.9-0.3s0.3-0.5,0.3-1
			c0-0.4-0.1-0.7-0.3-1c-0.2-0.2-0.5-0.3-0.9-0.3h-1.2V139.7z"/>
	</g>
	<line class="st2" x1="175.1" y1="182.9" x2="175.1" y2="154.9"/>
	<line class="st2" x1="111.2" y1="162.6" x2="111.2" y2="152.6"/>
	<g>
		<g>
			<g>
				<defs>
					<path id="SVGID_1_" d="M150.4,197.7c0,13.4-5.5,23.6-16,30.2L112.9,206L96,230.7c-13.5-5.7-20.7-17.5-20.7-33
						c0-20.7,16.8-37.5,37.5-37.5S150.4,177,150.4,197.7z"/>
				</defs>
				<clipPath id="SVGID_2_">
					<use xlink:href="#SVGID_1_"  style="overflow:visible;"/>
				</clipPath>
				<ellipse class="st10" cx="113.1" cy="197.4" rx="34" ry="34"/>
			</g>
		</g>
	</g>
	<g>
		<g>
			<g>
				<defs>
					<path id="SVGID_3_" d="M219.5,218.5c0,13.7-5.6,24.1-16.4,30.9l-22-22.3l-17.2,25.2c-13.8-5.8-21.1-17.9-21.1-33.8
						c0-21.2,17.2-38.3,38.4-38.3S219.5,197.4,219.5,218.5z"/>
				</defs>
				<clipPath id="SVGID_4_">
					<use xlink:href="#SVGID_3_"  style="overflow:visible;"/>
				</clipPath>
				<ellipse class="st11" cx="181.3" cy="218.2" rx="34.8" ry="34.8"/>
			</g>
		</g>
	</g>
	<path class="st2" d="M196.7,151.9h-46.9c-1.1,0-2-0.9-2-2v-20.4c0-1.1,0.9-2,2-2h46.9c1.1,0,2,0.9,2,2v20.4
		C198.7,151,197.8,151.9,196.7,151.9z"/>
	<path class="st12" d="M196.7,153.7h-47c-2.2,0-4-1.8-4-4v-20.1c0-2.2,1.8-4,4-4h47c2.2,0,4,1.8,4,4v20.1
		C200.7,151.9,198.9,153.7,196.7,153.7z"/>
	<g>
		<path class="st6" d="M55.4,203c1.4,2.1,2.2,4.7,2.2,7.4c0,7.6-6.2,13.8-13.8,13.8S30,218,30,210.4s6.2-13.8,13.8-13.8
			c2.7,0,5.3,0.8,7.4,2.2"/>
		<path class="st6" d="M48.5,207.9c0.4,0.7,0.6,1.6,0.6,2.5c0,2.9-2.4,5.3-5.3,5.3s-5.3-2.4-5.3-5.3s2.4-5.3,5.3-5.3
			c0.9,0,1.7,0.2,2.5,0.6"/>
		<path class="st6" d="M51.5,204.8c1.2,1.6,1.9,3.5,1.9,5.6c0,5.3-4.3,9.5-9.5,9.5s-9.5-4.3-9.5-9.5s4.3-9.5,9.5-9.5
			c2.1,0,4,0.7,5.5,1.8"/>
		<polyline class="st6" points="55.1,199.1 47.3,206.9 43.8,210.4 		"/>
		<g>
			<polyline class="st6" points="57.9,199.1 55.1,199.1 55.1,196.3 			"/>
		</g>
		<g>
			<polyline class="st6" points="56.2,200.9 53.3,200.9 53.3,198.1 			"/>
		</g>
		<g>
			<polyline class="st6" points="54.4,202.6 51.6,202.6 51.6,199.8 			"/>
		</g>
	</g>
	<g>
		<g>
			<g>
				<defs>
					<path id="SVGID_5_" d="M81.9,215.7c0,13.5-5.4,23.6-16,30.3L44,224.1l-18.4,24.2c-13.6-5.7-19.4-17-19.4-32.7
						c0-20.9,16.9-37.8,37.8-37.8S81.9,194.8,81.9,215.7z"/>
				</defs>
				<clipPath id="SVGID_6_">
					<use xlink:href="#SVGID_5_"  style="overflow:visible;"/>
				</clipPath>
				<circle class="st13" cx="44.3" cy="215.4" r="34.3"/>
			</g>
		</g>
	</g>
	<path class="st14" d="M61.8,252.2H29.5c-1.1,0-2-0.9-2-2v-20.4c0-1.1,0.9-2,2-2h32.3c1.1,0,2,0.9,2,2v20.4
		C63.8,251.3,62.9,252.2,61.8,252.2z"/>
	<g>
		<path class="st15" d="M93.8,106.2v5.8h-1.6v-8.3h1.9l3.4,5.8v-5.8h1.6v8.3h-1.9L93.8,106.2z"/>
		<path class="st15" d="M101,112v-8.3h1.8v6.9h3.6v1.4H101z"/>
		<path class="st15" d="M107.5,112v-8.3h3c0.8,0,1.4,0.2,1.9,0.6s0.7,0.9,0.7,1.6c0,0.4-0.1,0.8-0.3,1.1c-0.2,0.3-0.5,0.5-0.8,0.7
			c0.5,0.2,0.9,0.4,1.2,0.8c0.3,0.3,0.4,0.8,0.4,1.3c0,0.7-0.3,1.3-0.8,1.7c-0.5,0.4-1.3,0.6-2.2,0.6L107.5,112L107.5,112z
			 M109.2,104.9v2.2h1c0.8,0,1.2-0.4,1.2-1.1s-0.4-1.1-1.1-1.1H109.2z M109.2,108.3v2.3h1.4c0.8,0,1.2-0.4,1.2-1.2
			c0-0.8-0.4-1.2-1.3-1.2L109.2,108.3L109.2,108.3z"/>
	</g>
	<g>
		<path class="st15" d="M42.1,244h-1.3l-0.8-2.2h-3.4l-0.7,2.2h-1.3l3.1-8.3H39L42.1,244z M39.7,240.9l-1.4-4.1l-1.4,4.1H39.7z"/>
		<path class="st15" d="M48.3,244h-5.1v-8.3h1.2v7.3h3.9C48.3,243,48.3,244,48.3,244z"/>
		<path class="st15" d="M49.4,244v-8.3h2.7c0.8,0,1.4,0.2,1.9,0.6s0.7,0.9,0.7,1.6c0,0.4-0.1,0.8-0.3,1.1s-0.5,0.5-0.8,0.7
			c0.5,0.2,0.9,0.4,1.2,0.8c0.3,0.3,0.4,0.8,0.4,1.3c0,0.7-0.2,1.3-0.7,1.7s-1.2,0.6-2,0.6h-3.1C49.4,244.1,49.4,244,49.4,244z
			 M52,239.3c1,0,1.5-0.4,1.5-1.3c0-0.4-0.1-0.8-0.4-1c-0.2-0.2-0.6-0.3-1.1-0.3h-1.5v2.7L52,239.3L52,239.3z M52.4,243.1
			c1,0,1.5-0.5,1.5-1.4c0-0.5-0.1-0.8-0.4-1.1c-0.3-0.2-0.6-0.4-1.2-0.4h-1.8v2.9H52.4z"/>
	</g>
	<g>
		<path class="st16" d="M99,72.6c0.4,0,0.7-0.3,0.7-0.7V49c0-0.4-0.3-0.7-0.7-0.7H66.6c-0.4,0-0.7,0.3-0.7,0.7v23
			c0,0.4,0.3,0.7,0.7,0.7L99,72.6z"/>
		<g class="st17">
			<g class="st18">
				<g>
					<g>
						<g>
							<g>
								<g>
									<g>
										<path class="st19" d="M51.1,38.8c0-4.1,3.3-7.4,7.4-7.4s7.4,3.3,7.4,7.4s-3.3,7.4-7.4,7.4S51.1,42.9,51.1,38.8"/>
									</g>
								</g>
							</g>
							<path class="st19" d="M65.9,60.4H45.3c0.9-13.9,13.2-13.7,13.2-13.7s3.9-0.4,7.4,2.1"/>
						</g>
					</g>
				</g>
			</g>
		</g>
		<g>
			<g>
				<rect x="39.5" y="20.3" class="st20" width="63.4" height="63.4"/>
			</g>
			<g>
				<g>
					<g>
						<g>
							<g>
								<g>
									<g>
										<g>
											<g>
												<g>
													<g>
														<g>
															<line class="st21" x1="72.3" y1="72.5" x2="72.3" y2="52.6"/>
														</g>
													</g>
												</g>
												<line class="st21" x1="65.9" y1="52.5" x2="99.8" y2="52.5"/>
											</g>
										</g>
									</g>
								</g>
							</g>
							<path class="st21" d="M99,72.6c0.4,0,0.7-0.3,0.7-0.7V49c0-0.4-0.3-0.7-0.7-0.7H66.6c-0.4,0-0.7,0.3-0.7,0.7v23
								c0,0.4,0.3,0.7,0.7,0.7L99,72.6z"/>
						</g>
					</g>
					<line class="st22" x1="68" y1="50.4" x2="70.2" y2="50.4"/>
					<line class="st22" x1="71.2" y1="50.4" x2="73.3" y2="50.4"/>
					<line class="st22" x1="74.4" y1="50.4" x2="76.5" y2="50.4"/>
				</g>
				<g>
					<g>
						<g>
							<g>
								<g>
									<g>
										<g>
											<g>
												<path class="st23" d="M51.1,38.8c0-4.1,3.3-7.4,7.4-7.4s7.4,3.3,7.4,7.4s-3.3,7.4-7.4,7.4S51.1,42.9,51.1,38.8"/>
											</g>
										</g>
									</g>
									<path class="st23" d="M65.9,60.4H45.3c0.9-13.9,13.2-13.7,13.2-13.7s3.9-0.4,7.4,2.1"/>
								</g>
							</g>
						</g>
					</g>
				</g>
			</g>
		</g>
	</g>
	<g>
		<path class="st9" d="M163.4,143.5v-6.9h-2.5v-1.4h6.9v1.4h-2.5v6.9H163.4z"/>
		<path class="st9" d="M168.9,143.5v-8.3h1.8v6.9h3.6v1.4L168.9,143.5L168.9,143.5z"/>
		<path class="st9" d="M177,139.8c-0.7-0.3-1.2-0.6-1.5-1s-0.5-0.9-0.5-1.4c0-0.8,0.3-1.4,0.8-1.8c0.6-0.4,1.3-0.7,2.2-0.7
			c0.8,0,1.6,0.1,2.3,0.4v1.4c-0.8-0.2-1.5-0.4-2.2-0.4c-0.9,0-1.4,0.3-1.4,0.9c0,0.2,0.1,0.4,0.2,0.6c0.2,0.1,0.5,0.3,0.9,0.5
			l0.9,0.3c0.7,0.3,1.3,0.6,1.6,1s0.5,0.8,0.5,1.4c0,0.8-0.3,1.5-0.9,2c-0.6,0.5-1.4,0.7-2.4,0.7c-0.4,0-0.9,0-1.3-0.1
			c-0.4-0.1-0.8-0.2-1.2-0.3v-1.4c0.4,0.1,0.8,0.2,1.3,0.3s0.9,0.1,1.2,0.1c0.5,0,0.8-0.1,1.1-0.3s0.4-0.4,0.4-0.7
			c0-0.2-0.1-0.4-0.2-0.6c-0.2-0.1-0.5-0.3-0.9-0.5L177,139.8z"/>
	</g>
	<g>
		<path class="st15" d="M46.1,100.2l-3-8.3h2l1.9,6.6l1.9-6.6H51l-3,8.3H46.1z"/>
		<path class="st15" d="M53.8,97.1v3H52v-8.3h3.2c0.9,0,1.5,0.2,2.1,0.7c0.5,0.5,0.8,1.1,0.8,1.9s-0.3,1.5-0.8,1.9
			c-0.5,0.5-1.2,0.7-2.1,0.7h-1.4V97.1z M53.8,95.8H55c0.4,0,0.7-0.1,0.9-0.3s0.3-0.5,0.3-1s-0.1-0.7-0.3-1
			c-0.2-0.2-0.5-0.3-0.9-0.3h-1.2V95.8z"/>
		<path class="st15" d="M65.5,99.9c-0.6,0.2-1.4,0.4-2.2,0.4c-1.4,0-2.4-0.4-3.1-1.1c-0.7-0.7-1-1.8-1-3.2c0-1.4,0.4-2.5,1.1-3.2
			c0.7-0.8,1.8-1.1,3.1-1.1c0.7,0,1.4,0.1,2,0.3v1.4c-0.7-0.2-1.3-0.2-1.8-0.2c-0.8,0-1.5,0.2-1.9,0.7c-0.4,0.4-0.6,1.1-0.6,2v0.3
			c0,0.9,0.2,1.6,0.6,2c0.4,0.4,1,0.7,1.8,0.7c0.5,0,1.1-0.1,2-0.3C65.5,98.6,65.5,99.9,65.5,99.9z"/>
	</g>
	<g>
		<g>
			<path class="st7" d="M60.5,62.6c-0.3,0.6-0.6,1.2-0.9,1.8"/>
			<path class="st24" d="M58.8,70.5c2.7,13.1,38.3,12.2,26,39.7c-3.8,8.5-27.7,0.7-34.6,9.9"/>
			<path class="st7" d="M48.8,122.9c-0.2,0.6-0.3,1.3-0.4,2"/>
		</g>
	</g>
	<g id="Icon-Service_x2F_32_x2F_AWS-PrivateLink_1_">
		<path id="AWS-PrivateLink_Icon_32_Squid_1_" class="st25" d="M162.1,49.8c0.8,0.9,1.2,2,1.2,3.1c0,2.6-1.8,4.5-4.3,4.5h-5.5
			c-2.5,0-4.4-1.9-4.4-4.5s1.9-4.6,4.4-4.6h2v1.3h-2c-1.8,0-3.1,1.4-3.1,3.3c0,1.9,1.3,3.2,3.1,3.2h5.5c1.8,0,3-1.3,3-3.2
			c0-0.8-0.3-1.6-0.9-2.2L162.1,49.8z M171.1,51.7c0,2.7-1.8,4.4-4.6,4.4h-2v-1.3h2c0.8,0,3.3-0.2,3.3-3.1c0-2.1-1.3-3.5-3.2-3.5
			h-5.2c-1.9,0-3.5,1.6-3.5,3.4c0,0.5,0.3,1.1,0.6,1.5l-1.1,0.7c-0.3-0.6-0.8-1.3-0.8-2.2c0-2.5,2.2-4.7,4.8-4.7h5.2
			C169.3,46.9,171.1,48.9,171.1,51.7L171.1,51.7z M172,60.1h-22.6c-3.1,0-5.4-2.2-5.6-5.1c0-0.1,0-0.3,0-0.4c0-3.8,2.7-5,4.2-5.4
			c0.3-0.1,0.5-0.4,0.5-0.7s-0.1-0.7-0.1-1c0-3,2.2-6.3,4.9-7.4c1.1-0.5,2.3-0.7,3.4-0.7c2.2,0,4.3,0.9,6,2.5c1,1,1.8,2.2,2.3,3.7
			c0.1,0.2,0.3,0.4,0.5,0.4s0.5-0.1,0.6-0.2c0.8-1.1,2.1-1.5,3.3-1.1c1.4,0.4,2.3,1.9,2.5,3.9c0,0.3,0.2,0.5,0.5,0.6
			c3.4,0.7,5.1,2.6,5.1,5.6C177.5,59.3,174,60.1,172,60.1L172,60.1z M173.2,47.8c-0.3-2.3-1.5-4-3.3-4.5c-1.4-0.4-2.9-0.1-4,0.8
			c-0.6-1.3-1.3-2.3-2.3-3.2c-3-2.9-7-3.7-10.8-2.1c-3.3,1.3-5.7,5-5.7,8.6c0,0.2,0,0.4,0,0.6c-1.7,0.6-4.7,2.2-4.7,6.5
			c0,0.2,0,0.3,0,0.5c0.2,3.6,3.2,6.4,6.9,6.4H172c4.3,0,6.9-2.5,6.9-6.8C178.8,51.1,176.8,48.7,173.2,47.8L173.2,47.8z"/>
	</g>
	<path class="st1" d="M133.8,84.3h-7.7c-1.1,0-2-0.9-2-2V20.8c0-1.1,0.9-2,2-2H140"/>
	<path class="st1" d="M133.8,84.3"/>
	<path class="st1" d="M178.3,18.8H198c1.1,0,2,0.9,2,2v61.5c0,1.1-0.9,2-2,2h-52"/>
	<g>
		<path class="st15" d="M152.1,20l-3-8.3h2l1.9,6.6l1.9-6.6h1.9l-3,8.3H152.1z"/>
		<path class="st15" d="M159.8,16.9v3H158v-8.3h3.2c0.9,0,1.5,0.2,2.1,0.7c0.5,0.5,0.8,1.1,0.8,1.9c0,0.8-0.3,1.5-0.8,1.9
			c-0.5,0.5-1.2,0.7-2.1,0.7h-1.4V16.9z M159.8,15.6h1.2c0.4,0,0.7-0.1,0.9-0.3s0.3-0.5,0.3-1s-0.1-0.7-0.3-1
			c-0.2-0.2-0.5-0.3-0.9-0.3h-1.2V15.6z"/>
		<path class="st15" d="M171.5,19.7c-0.6,0.2-1.4,0.4-2.2,0.4c-1.4,0-2.4-0.4-3.1-1.1c-0.7-0.7-1-1.8-1-3.2s0.4-2.5,1.1-3.2
			c0.7-0.8,1.8-1.1,3.1-1.1c0.7,0,1.4,0.1,2,0.3v1.4c-0.7-0.2-1.3-0.2-1.8-0.2c-0.8,0-1.5,0.2-1.9,0.7c-0.4,0.4-0.6,1.1-0.6,2V16
			c0,0.9,0.2,1.6,0.6,2c0.4,0.4,1,0.7,1.8,0.7c0.5,0,1.1-0.1,2-0.3L171.5,19.7L171.5,19.7z"/>
	</g>
	<path class="st12" d="M62.4,154.2H17.7c-2.2,0-4-1.8-4-4v-20.1c0-2.2,1.8-4,4-4h44.7c2.2,0,4,1.8,4,4v20.1
		C66.4,152.4,64.6,154.2,62.4,154.2z"/>
	<line class="st26" x1="42.3" y1="155.2" x2="42.3" y2="181.1"/>
	<line class="st27" x1="44.4" y1="155.1" x2="44.4" y2="180.6"/>
	<g>
		<g>
			<path class="st28" d="M70.2,46.2c15-15.3,72.8-57.6,75.8-21"/>
			<path class="st7" d="M146.1,28.3c0,0.7,0,1.3,0,2"/>
		</g>
	</g>
	<path class="st2" d="M189.2,76.2h-54.1c-1.1,0-2-0.9-2-2V34.4c0-1.1,0.9-2,2-2h54.1c1.1,0,2,0.9,2,2v39.8
		C191.2,75.3,190.3,76.2,189.2,76.2z"/>
	<g>
		<path class="st15" d="M148.4,72.5l-3-8.3h1.5l2.3,6.9l2.3-6.9h1.5l-3,8.3H148.4z"/>
		<path class="st15" d="M155.5,69.4v3.1H154v-8.3h3.1c0.8,0,1.5,0.2,2,0.7s0.7,1.1,0.7,1.9s-0.2,1.4-0.7,1.9s-1.1,0.7-2,0.7
			C157.1,69.4,155.5,69.4,155.5,69.4z M155.5,68.2h1.5c0.5,0,0.8-0.1,1-0.4c0.2-0.2,0.3-0.6,0.3-1.1s-0.1-0.8-0.3-1.1
			c-0.2-0.2-0.6-0.4-1-0.4h-1.5V68.2z"/>
		<path class="st15" d="M167.2,72.3c-0.6,0.2-1.4,0.4-2.2,0.4c-1.3,0-2.3-0.4-3-1.1s-1-1.7-1-3.1s0.3-2.5,1-3.3s1.7-1.1,3-1.1
			c0.7,0,1.4,0.1,2,0.3v1.2c-0.8-0.2-1.4-0.3-1.9-0.3c-0.9,0-1.6,0.2-2,0.7s-0.7,1.2-0.7,2.2v0.3c0,1,0.2,1.7,0.7,2.2
			c0.4,0.5,1.1,0.7,2,0.7c0.5,0,1.2-0.1,2-0.3L167.2,72.3L167.2,72.3z"/>
		<path class="st15" d="M169.6,69.8c0,0.6,0.2,1.1,0.5,1.3c0.3,0.3,0.8,0.4,1.4,0.4c0.6,0,1.2-0.1,1.9-0.3v1c-0.3,0.1-0.6,0.3-1,0.3
			s-0.8,0.1-1.2,0.1c-1,0-1.8-0.3-2.3-0.8s-0.8-1.3-0.8-2.4c0-1,0.3-1.8,0.8-2.4s1.2-0.9,2.1-0.9c0.8,0,1.4,0.2,1.8,0.6
			c0.4,0.4,0.6,1,0.6,1.8c0,0.4,0,0.8-0.1,1.1h-3.7V69.8z M171,67.2c-0.4,0-0.7,0.1-1,0.4s-0.4,0.7-0.4,1.2h2.6v-0.1
			c0-0.5-0.1-0.9-0.3-1.1S171.4,67.2,171,67.2z"/>
	</g>
	<g>
		<g>
			<path class="st7" d="M153.7,124.9c0-0.7-0.1-1.4-0.3-2"/>
			<path class="st29" d="M148.7,119.1c-13.1-4.3-45.2,3.4-9.9-33.9"/>
			<path class="st7" d="M141,83c0.5-0.5,0.9-0.9,1.4-1.4"/>
		</g>
	</g>
</g>
</svg>
