<?xml version="1.0" encoding="utf-8"?>
<!-- Generator: Adobe Illustrator 25.3.1, SVG Export Plug-In . SVG Version: 6.00 Build 0)  -->
<svg version="1.1" id="Layer_1" xmlns="http://www.w3.org/2000/svg" xmlns:xlink="http://www.w3.org/1999/xlink" x="0px" y="0px"
	 viewBox="0 0 253 239" style="background-color:white" xml:space="preserve">
<style type="text/css">
	.st0{fill:none;stroke:#F79820;stroke-width:2;stroke-linecap:square;stroke-miterlimit:10;}
	.st1{fill:none;stroke:#F79820;stroke-width:2;stroke-linecap:square;stroke-miterlimit:10;stroke-dasharray:3.6923,5.5385;}
	.st2{fill:none;stroke:#232F3E;stroke-width:2;stroke-linecap:square;stroke-miterlimit:10;}
	.st3{fill:none;stroke:#F79822;stroke-linejoin:round;stroke-miterlimit:10;}
	.st4{fill:none;stroke:#232F3E;stroke-linejoin:round;stroke-miterlimit:10;}
	.st5{fill:none;stroke:#929497;stroke-linejoin:round;stroke-miterlimit:10;}
	.st6{fill:#F79820;}
	.st7{fill:none;stroke:#F7981D;stroke-width:2;stroke-linecap:square;stroke-miterlimit:10;}
	.st8{display:none;fill:#FFFFFF;}
	.st9{display:none;}
	.st10{display:inline;}
	.st11{fill:#FFFFFF;}
	.st12{fill:none;}
	.st13{fill:none;stroke:#869196;stroke-width:2;stroke-linejoin:round;stroke-miterlimit:10;}
	.st14{fill:none;stroke:#858F94;stroke-width:2;stroke-linejoin:round;stroke-miterlimit:10;}
	.st15{fill:none;stroke:#869196;stroke-width:2;stroke-miterlimit:10;}
	.st16{fill:#231F20;}
	.st17{fill:none;stroke:#F79820;stroke-width:2;stroke-linecap:square;stroke-miterlimit:10;stroke-dasharray:4.0814,6.1221;}
</style>
<g>
	<g>
		<g>
			<line class="st0" x1="214.5" y1="140" x2="214.5" y2="142"/>
			<line class="st1" x1="214.5" y1="147.5" x2="214.5" y2="163.2"/>
			<line class="st0" x1="214.5" y1="166" x2="214.5" y2="168"/>
		</g>
	</g>
	<line class="st2" x1="216.5" y1="140" x2="216.5" y2="168"/>
	<path class="st2" d="M9.1,128.4c-1,0-1.7-0.9-1.7-2V98.1c0-1.1,0.8-2,1.7-2h94"/>
	<path class="st2" d="M9.1,128.4"/>
	<path class="st2" d="M67.7,128.4h-3.6"/>
	<path class="st2" d="M131.1,128.4H127"/>
	<path class="st2" d="M189.2,128.4h-7.4"/>
	<path class="st2" d="M153.1,96.1h91.2c1,0,1.7,0.9,1.7,2v28.2c-0.1,1.2-0.8,2.1-1.8,2.1h-3.1"/>
	<path class="st2" d="M179.2,138.9h-45.3c-1.1,0-2-0.9-2-2v-20.4c0-1.1,0.9-2,2-2h45.3c1.1,0,2,0.9,2,2v20.4
		C181.2,138,180.3,138.9,179.2,138.9z"/>
	<path class="st2" d="M124.5,138.9h-54c-1.1,0-2-0.9-2-2v-20.4c0-1.1,0.9-2,2-2h54c1.1,0,2,0.9,2,2v20.4
		C126.5,138,125.6,138.9,124.5,138.9z"/>
	<path class="st2" d="M61.5,138.9h-49c-1.1,0-2-0.9-2-2v-20.4c0-1.1,0.9-2,2-2h49c1.1,0,2,0.9,2,2v20.4
		C63.5,138,62.6,138.9,61.5,138.9z"/>
	<g>
		<g>
			<g>
				<path class="st3" d="M202.8,174.1h25.5c0.7,0,1.3,0.6,1.3,1.3v25.5c0,0.7-0.6,1.3-1.3,1.3h-25.5c-0.7,0-1.3-0.6-1.3-1.3v-25.5
					C201.5,174.7,202.1,174.1,202.8,174.1z"/>
				<path class="st3" d="M206.9,194.8v-13.4c0-1.1,0.9-2,2-2h13.4c1.1,0,2,0.9,2,2v13.4c0,1.1-0.9,2-2,2h-13.4
					C207.8,196.8,206.9,195.9,206.9,194.8z"/>
				<line class="st3" x1="197.1" y1="182.6" x2="201.5" y2="182.6"/>
				<line class="st3" x1="197.1" y1="176.8" x2="201.5" y2="176.8"/>
				<line class="st3" x1="197.1" y1="188.4" x2="201.5" y2="188.4"/>
				<line class="st3" x1="197.1" y1="194.2" x2="201.5" y2="194.2"/>
				<line class="st3" x1="197.1" y1="199.9" x2="201.5" y2="199.9"/>
				<line class="st3" x1="209.5" y1="206.6" x2="209.5" y2="202.2"/>
				<line class="st3" x1="203.7" y1="206.6" x2="203.7" y2="202.2"/>
				<line class="st3" x1="215.3" y1="206.6" x2="215.3" y2="202.2"/>
				<line class="st3" x1="221.1" y1="206.6" x2="221.1" y2="202.2"/>
				<line class="st3" x1="226.9" y1="206.6" x2="226.9" y2="202.2"/>
				<line class="st3" x1="209.5" y1="174.1" x2="209.5" y2="169.6"/>
				<line class="st3" x1="203.7" y1="174.1" x2="203.7" y2="169.6"/>
				<line class="st3" x1="215.3" y1="174.1" x2="215.3" y2="169.6"/>
				<line class="st3" x1="221.1" y1="174.1" x2="221.1" y2="169.6"/>
				<line class="st3" x1="226.9" y1="174.1" x2="226.9" y2="169.6"/>
				<line class="st3" x1="229.6" y1="182.6" x2="234.1" y2="182.6"/>
				<line class="st3" x1="229.6" y1="176.8" x2="234.1" y2="176.8"/>
				<line class="st3" x1="229.6" y1="188.4" x2="234.1" y2="188.4"/>
				<line class="st3" x1="229.6" y1="194.2" x2="234.1" y2="194.2"/>
				<line class="st3" x1="229.6" y1="199.9" x2="234.1" y2="199.9"/>
			</g>
		</g>
	</g>
	<g>
		<g>
			<g>
				<path class="st4" d="M23.8,174.4h25.5c0.7,0,1.3,0.6,1.3,1.3v25.5c0,0.7-0.6,1.3-1.3,1.3H23.8c-0.7,0-1.3-0.6-1.3-1.3v-25.5
					C22.5,175,23.1,174.4,23.8,174.4z"/>
				<path class="st4" d="M27.9,195.1v-13.4c0-1.1,0.9-2,2-2h13.4c1.1,0,2,0.9,2,2v13.4c0,1.1-0.9,2-2,2H29.9
					C28.8,197.1,27.9,196.3,27.9,195.1z"/>
				<line class="st4" x1="18.1" y1="182.9" x2="22.5" y2="182.9"/>
				<line class="st4" x1="18.1" y1="177.1" x2="22.5" y2="177.1"/>
				<line class="st4" x1="18.1" y1="188.7" x2="22.5" y2="188.7"/>
				<line class="st4" x1="18.1" y1="194.5" x2="22.5" y2="194.5"/>
				<line class="st4" x1="18.1" y1="200.3" x2="22.5" y2="200.3"/>
				<line class="st4" x1="30.5" y1="207" x2="30.5" y2="202.5"/>
				<line class="st4" x1="24.7" y1="207" x2="24.7" y2="202.5"/>
				<line class="st4" x1="36.3" y1="207" x2="36.3" y2="202.5"/>
				<line class="st4" x1="42.1" y1="207" x2="42.1" y2="202.5"/>
				<line class="st4" x1="47.9" y1="207" x2="47.9" y2="202.5"/>
				<line class="st4" x1="30.5" y1="174.4" x2="30.5" y2="170"/>
				<line class="st4" x1="24.7" y1="174.4" x2="24.7" y2="170"/>
				<line class="st4" x1="36.3" y1="174.4" x2="36.3" y2="170"/>
				<line class="st4" x1="42.1" y1="174.4" x2="42.1" y2="170"/>
				<line class="st4" x1="47.9" y1="174.4" x2="47.9" y2="170"/>
				<line class="st4" x1="50.6" y1="182.9" x2="55.1" y2="182.9"/>
				<line class="st4" x1="50.6" y1="177.1" x2="55.1" y2="177.1"/>
				<line class="st4" x1="50.6" y1="188.7" x2="55.1" y2="188.7"/>
				<line class="st4" x1="50.6" y1="194.5" x2="55.1" y2="194.5"/>
				<line class="st4" x1="50.6" y1="200.3" x2="55.1" y2="200.3"/>
			</g>
		</g>
	</g>
	<g>
		<g>
			<g>
				<path class="st4" d="M84,174.6h25.5c0.7,0,1.3,0.6,1.3,1.3v25.5c0,0.7-0.6,1.3-1.3,1.3H84c-0.7,0-1.3-0.6-1.3-1.3v-25.5
					C82.7,175.2,83.3,174.6,84,174.6z"/>
				<path class="st4" d="M88.1,195.4V182c0-1.1,0.9-2,2-2h13.4c1.1,0,2,0.9,2,2v13.4c0,1.1-0.9,2-2,2H90.1
					C88.9,197.4,88.1,196.5,88.1,195.4z"/>
				<line class="st4" x1="78.2" y1="183.1" x2="82.7" y2="183.1"/>
				<line class="st4" x1="78.2" y1="177.3" x2="82.7" y2="177.3"/>
				<line class="st4" x1="78.2" y1="188.9" x2="82.7" y2="188.9"/>
				<line class="st4" x1="78.2" y1="194.7" x2="82.7" y2="194.7"/>
				<line class="st4" x1="78.2" y1="200.5" x2="82.7" y2="200.5"/>
				<line class="st4" x1="90.7" y1="207.2" x2="90.7" y2="202.7"/>
				<line class="st4" x1="84.9" y1="207.2" x2="84.9" y2="202.7"/>
				<line class="st4" x1="96.5" y1="207.2" x2="96.5" y2="202.7"/>
				<line class="st4" x1="102.3" y1="207.2" x2="102.3" y2="202.7"/>
				<line class="st4" x1="108.1" y1="207.2" x2="108.1" y2="202.7"/>
				<line class="st4" x1="90.7" y1="174.6" x2="90.7" y2="170.2"/>
				<line class="st4" x1="84.9" y1="174.6" x2="84.9" y2="170.2"/>
				<line class="st4" x1="96.5" y1="174.6" x2="96.5" y2="170.2"/>
				<line class="st4" x1="102.3" y1="174.6" x2="102.3" y2="170.2"/>
				<line class="st4" x1="108.1" y1="174.6" x2="108.1" y2="170.2"/>
				<line class="st4" x1="110.8" y1="183.1" x2="115.2" y2="183.1"/>
				<line class="st4" x1="110.8" y1="177.3" x2="115.2" y2="177.3"/>
				<line class="st4" x1="110.8" y1="188.9" x2="115.2" y2="188.9"/>
				<line class="st4" x1="110.8" y1="194.7" x2="115.2" y2="194.7"/>
				<line class="st4" x1="110.8" y1="200.5" x2="115.2" y2="200.5"/>
			</g>
		</g>
	</g>
	<g>
		<g>
			<g>
				<path class="st4" d="M144.4,174.6h25.5c0.7,0,1.3,0.6,1.3,1.3v25.5c0,0.7-0.6,1.3-1.3,1.3h-25.5c-0.7,0-1.3-0.6-1.3-1.3v-25.5
					C143.1,175.2,143.7,174.6,144.4,174.6z"/>
				<path class="st4" d="M148.4,195.4V182c0-1.1,0.9-2,2-2h13.4c1.1,0,2,0.9,2,2v13.4c0,1.1-0.9,2-2,2h-13.4
					C149.3,197.4,148.4,196.5,148.4,195.4z"/>
				<line class="st4" x1="138.6" y1="183.1" x2="143.1" y2="183.1"/>
				<line class="st4" x1="138.6" y1="177.3" x2="143.1" y2="177.3"/>
				<line class="st4" x1="138.6" y1="188.9" x2="143.1" y2="188.9"/>
				<line class="st4" x1="138.6" y1="194.7" x2="143.1" y2="194.7"/>
				<line class="st4" x1="138.6" y1="200.5" x2="143.1" y2="200.5"/>
				<line class="st4" x1="151.1" y1="207.2" x2="151.1" y2="202.7"/>
				<line class="st4" x1="145.3" y1="207.2" x2="145.3" y2="202.7"/>
				<line class="st4" x1="156.9" y1="207.2" x2="156.9" y2="202.7"/>
				<line class="st4" x1="162.7" y1="207.2" x2="162.7" y2="202.7"/>
				<line class="st4" x1="168.5" y1="207.2" x2="168.5" y2="202.7"/>
				<line class="st4" x1="151.1" y1="174.6" x2="151.1" y2="170.2"/>
				<line class="st4" x1="145.3" y1="174.6" x2="145.3" y2="170.2"/>
				<line class="st4" x1="156.9" y1="174.6" x2="156.9" y2="170.2"/>
				<line class="st4" x1="162.7" y1="174.6" x2="162.7" y2="170.2"/>
				<line class="st4" x1="168.5" y1="174.6" x2="168.5" y2="170.2"/>
				<line class="st4" x1="171.2" y1="183.1" x2="175.6" y2="183.1"/>
				<line class="st4" x1="171.2" y1="177.3" x2="175.6" y2="177.3"/>
				<line class="st4" x1="171.2" y1="188.9" x2="175.6" y2="188.9"/>
				<line class="st4" x1="171.2" y1="194.7" x2="175.6" y2="194.7"/>
				<line class="st4" x1="171.2" y1="200.5" x2="175.6" y2="200.5"/>
			</g>
		</g>
	</g>
	<line class="st5" x1="65.4" y1="155.3" x2="65.4" y2="231.5"/>
	<line class="st5" x1="129.3" y1="154.5" x2="129.3" y2="230.7"/>
	<line class="st5" x1="184.2" y1="155.3" x2="184.2" y2="231.5"/>
	<g>
		<path class="st6" d="M20.6,130.7v-3.5h-3.3v3.5h-1.8v-8.3h1.8v3.4h3.3v-3.4h1.8v8.3H20.6z"/>
		<path class="st6" d="M26,130.7v-6.9h-2.5v-1.4h6.9v1.4h-2.5v6.9H26z"/>
		<path class="st6" d="M33.6,130.7v-6.9h-2.5v-1.4H38v1.4h-2.5v6.9H33.6z"/>
		<path class="st6" d="M40.8,127.6v3H39v-8.3h3.2c0.9,0,1.5,0.2,2.1,0.7c0.5,0.5,0.8,1.1,0.8,1.9s-0.3,1.5-0.8,1.9
			c-0.5,0.5-1.2,0.7-2.1,0.7L40.8,127.6L40.8,127.6z M40.8,126.3H42c0.4,0,0.7-0.1,0.9-0.3c0.2-0.2,0.3-0.5,0.3-1s-0.1-0.7-0.3-1
			s-0.5-0.3-0.9-0.3h-1.2V126.3z"/>
	</g>
	<g>
		<path class="st6" d="M78.6,130.7v-3.5h-3.3v3.5h-1.8v-8.3h1.8v3.4h3.3v-3.4h1.8v8.3H78.6z"/>
		<path class="st6" d="M84,130.7v-6.9h-2.5v-1.4h6.9v1.4h-2.5v6.9H84z"/>
		<path class="st6" d="M91.6,130.7v-6.9h-2.5v-1.4H96v1.4h-2.5v6.9H91.6z"/>
		<path class="st6" d="M98.8,127.6v3H97v-8.3h3.2c0.9,0,1.5,0.2,2.1,0.7c0.5,0.5,0.8,1.1,0.8,1.9s-0.3,1.5-0.8,1.9
			c-0.5,0.5-1.2,0.7-2.1,0.7L98.8,127.6L98.8,127.6z M98.8,126.3h1.2c0.4,0,0.7-0.1,0.9-0.3c0.2-0.2,0.3-0.5,0.3-1s-0.1-0.7-0.3-1
			s-0.5-0.3-0.9-0.3h-1.2V126.3z"/>
		<path class="st6" d="M106.1,127c-0.7-0.3-1.2-0.6-1.5-1s-0.5-0.9-0.5-1.4c0-0.8,0.3-1.4,0.8-1.8c0.6-0.4,1.3-0.7,2.2-0.7
			c0.8,0,1.6,0.1,2.3,0.4v1.4c-0.8-0.2-1.5-0.4-2.2-0.4c-0.9,0-1.4,0.3-1.4,0.9c0,0.2,0.1,0.4,0.2,0.6c0.2,0.1,0.5,0.3,0.9,0.5
			l0.9,0.3c0.7,0.3,1.3,0.6,1.6,1c0.3,0.4,0.5,0.8,0.5,1.4c0,0.8-0.3,1.5-0.9,2s-1.4,0.7-2.4,0.7c-0.4,0-0.9,0-1.3-0.1
			s-0.8-0.2-1.2-0.3V129c0.4,0.1,0.8,0.2,1.3,0.3s0.9,0.1,1.2,0.1c0.5,0,0.8-0.1,1.1-0.3c0.3-0.2,0.4-0.4,0.4-0.7
			c0-0.2-0.1-0.4-0.2-0.6c-0.2-0.1-0.5-0.3-0.9-0.5L106.1,127z"/>
	</g>
	<g>
		<path class="st6" d="M139.5,130.7v-6.9H137v-1.4h6.9v1.4h-2.5v6.9H139.5z"/>
		<path class="st6" d="M150.8,130.4c-0.6,0.2-1.4,0.4-2.2,0.4c-1.4,0-2.4-0.4-3.1-1.1c-0.7-0.7-1-1.8-1-3.2c0-1.4,0.4-2.5,1.1-3.2
			c0.7-0.8,1.8-1.1,3.1-1.1c0.7,0,1.4,0.1,2,0.3v1.4c-0.7-0.2-1.3-0.2-1.8-0.2c-0.8,0-1.5,0.2-1.9,0.7c-0.4,0.4-0.6,1.1-0.6,2v0.3
			c0,0.9,0.2,1.6,0.6,2s1,0.7,1.8,0.7c0.5,0,1.1-0.1,2-0.3L150.8,130.4L150.8,130.4z"/>
		<path class="st6" d="M153.9,127.6v3h-1.8v-8.3h3.2c0.9,0,1.5,0.2,2.1,0.7s0.8,1.1,0.8,1.9s-0.3,1.5-0.8,1.9
			c-0.5,0.5-1.2,0.7-2.1,0.7L153.9,127.6L153.9,127.6z M153.9,126.3h1.2c0.4,0,0.7-0.1,0.9-0.3s0.3-0.5,0.3-1c0-0.4-0.1-0.7-0.3-1
			c-0.2-0.2-0.5-0.3-0.9-0.3h-1.2V126.3z"/>
	</g>
	<g>
		<path class="st2" d="M238.2,138.9h-46.9c-1.1,0-2-0.9-2-2v-20.4c0-1.1,0.9-2,2-2h46.9c1.1,0,2,0.9,2,2v20.4
			C240.2,138,239.3,138.9,238.2,138.9z"/>
		<path class="st7" d="M238,140.8h-46.6c-2.2,0-4-1.8-4-4v-20c0-2.2,1.8-4,4-4H238c2.2,0,4,1.8,4,4v20
			C242,139,240.2,140.8,238,140.8z"/>
	</g>
	<g>
		<path class="st8" d="M158.1,72.1c0.4,0,0.7-0.3,0.7-0.7V48.5c0-0.4-0.3-0.7-0.7-0.7h-32.4c-0.4,0-0.7,0.3-0.7,0.7v23
			c0,0.4,0.3,0.7,0.7,0.7L158.1,72.1z"/>
		<g class="st9">
			<g class="st10">
				<g>
					<g>
						<g>
							<g>
								<g>
									<g>
										<path class="st11" d="M110.1,38.3c0-4.1,3.3-7.4,7.4-7.4s7.4,3.3,7.4,7.4s-3.3,7.4-7.4,7.4S110.1,42.4,110.1,38.3"/>
									</g>
								</g>
							</g>
							<path class="st11" d="M124.9,60h-20.6c0.9-13.9,13.2-13.7,13.2-13.7s3.9-0.4,7.4,2.1"/>
						</g>
					</g>
				</g>
			</g>
		</g>
		<g>
			<g>
				<rect x="98.5" y="19.8" class="st12" width="63.4" height="63.4"/>
			</g>
			<g>
				<g>
					<g>
						<g>
							<g>
								<g>
									<g>
										<g>
											<g>
												<g>
													<g>
														<g>
															<line class="st13" x1="131.3" y1="72.1" x2="131.3" y2="52.1"/>
														</g>
													</g>
												</g>
												<line class="st13" x1="124.9" y1="52" x2="158.8" y2="52"/>
											</g>
										</g>
									</g>
								</g>
							</g>
							<path class="st13" d="M158.1,72.1c0.4,0,0.7-0.3,0.7-0.7V48.5c0-0.4-0.3-0.7-0.7-0.7h-32.4c-0.4,0-0.7,0.3-0.7,0.7v23
								c0,0.4,0.3,0.7,0.7,0.7L158.1,72.1z"/>
						</g>
					</g>
					<line class="st14" x1="127" y1="49.9" x2="129.2" y2="49.9"/>
					<line class="st14" x1="130.2" y1="49.9" x2="132.3" y2="49.9"/>
					<line class="st14" x1="133.4" y1="49.9" x2="135.5" y2="49.9"/>
				</g>
				<g>
					<g>
						<g>
							<g>
								<g>
									<g>
										<g>
											<g>
												<path class="st15" d="M110.1,38.3c0-4.1,3.3-7.4,7.4-7.4s7.4,3.3,7.4,7.4s-3.3,7.4-7.4,7.4S110.1,42.4,110.1,38.3"/>
											</g>
										</g>
									</g>
									<path class="st15" d="M124.9,60h-20.6c0.9-13.9,13.2-13.7,13.2-13.7s3.9-0.4,7.4,2.1"/>
								</g>
							</g>
						</g>
					</g>
				</g>
			</g>
		</g>
	</g>
	<g>
		<path class="st16" d="M122.4,101.3c-0.6,0.2-1.4,0.4-2.2,0.4c-1.4,0-2.4-0.4-3.1-1.1s-1-1.8-1-3.2c0-1.4,0.4-2.5,1.1-3.2
			c0.7-0.8,1.8-1.1,3.1-1.1c0.7,0,1.4,0.1,2,0.3v1.4c-0.7-0.2-1.3-0.2-1.8-0.2c-0.8,0-1.5,0.2-1.9,0.7c-0.4,0.4-0.6,1.1-0.6,2v0.3
			c0,0.9,0.2,1.6,0.6,2s1,0.7,1.8,0.7c0.5,0,1.1-0.1,2-0.3V101.3z"/>
		<path class="st16" d="M123.8,101.5v-8.3h1.8v6.9h3.6v1.4H123.8z"/>
		<path class="st16" d="M130.3,101.5v-8.3h3c0.8,0,1.4,0.2,1.9,0.6s0.7,0.9,0.7,1.6c0,0.4-0.1,0.8-0.3,1.1c-0.2,0.3-0.5,0.5-0.8,0.7
			c0.5,0.2,0.9,0.4,1.2,0.8c0.3,0.3,0.4,0.8,0.4,1.3c0,0.7-0.3,1.3-0.8,1.7c-0.5,0.4-1.3,0.6-2.2,0.6L130.3,101.5L130.3,101.5z
			 M132,94.5v2.2h1c0.8,0,1.2-0.4,1.2-1.1s-0.4-1.1-1.1-1.1H132z M132,97.9v2.3h1.4c0.8,0,1.2-0.4,1.2-1.2c0-0.8-0.4-1.2-1.3-1.2
			L132,97.9L132,97.9z"/>
	</g>
	<g>
		<path class="st6" d="M199.1,127c-0.7-0.3-1.2-0.6-1.5-1s-0.5-0.9-0.5-1.4c0-0.8,0.3-1.4,0.8-1.8c0.6-0.4,1.3-0.7,2.2-0.7
			c0.8,0,1.6,0.1,2.3,0.4v1.4c-0.8-0.2-1.5-0.4-2.2-0.4c-0.9,0-1.4,0.3-1.4,0.9c0,0.2,0.1,0.4,0.2,0.6c0.2,0.1,0.5,0.3,0.9,0.5
			l0.9,0.3c0.7,0.3,1.3,0.6,1.6,1s0.5,0.8,0.5,1.4c0,0.8-0.3,1.5-0.9,2c-0.6,0.5-1.4,0.7-2.4,0.7c-0.4,0-0.9,0-1.3-0.1
			c-0.4-0.1-0.8-0.2-1.2-0.3V129c0.4,0.1,0.8,0.2,1.3,0.3s0.9,0.1,1.2,0.1c0.5,0,0.8-0.1,1.1-0.3s0.4-0.4,0.4-0.7
			c0-0.2-0.1-0.4-0.2-0.6c-0.2-0.1-0.5-0.3-0.9-0.5L199.1,127z"/>
		<path class="st6" d="M206,127c-0.7-0.3-1.2-0.6-1.5-1s-0.5-0.9-0.5-1.4c0-0.8,0.3-1.4,0.8-1.8c0.6-0.4,1.3-0.7,2.2-0.7
			c0.8,0,1.6,0.1,2.3,0.4v1.4c-0.8-0.2-1.5-0.4-2.2-0.4c-0.9,0-1.4,0.3-1.4,0.9c0,0.2,0.1,0.4,0.2,0.6c0.2,0.1,0.5,0.3,0.9,0.5
			l0.9,0.3c0.7,0.3,1.3,0.6,1.6,1s0.5,0.8,0.5,1.4c0,0.8-0.3,1.5-0.9,2c-0.6,0.5-1.4,0.7-2.4,0.7c-0.4,0-0.9,0-1.3-0.1
			c-0.4-0.1-0.8-0.2-1.2-0.3V129c0.4,0.1,0.8,0.2,1.3,0.3s0.9,0.1,1.2,0.1c0.5,0,0.8-0.1,1.1-0.3s0.4-0.4,0.4-0.7
			c0-0.2-0.1-0.4-0.2-0.6c-0.2-0.1-0.5-0.3-0.9-0.5L206,127z"/>
		<path class="st6" d="M211.4,130.7v-8.3h1.8v6.9h3.6v1.4L211.4,130.7L211.4,130.7z"/>
	</g>
	<g>
		<g>
			<path class="st0" d="M119.5,62c-0.2,0.7-0.4,1.3-0.6,1.9"/>
			<path class="st17" d="M117.7,69.9c-2,17.8,19.1,6.6,30.8,30.1c7.2,14.4,48.6-2.1,60.3,7.8"/>
			<path class="st0" d="M210.8,110.1c0.3,0.6,0.6,1.2,0.7,1.9"/>
		</g>
	</g>
	<line class="st2" x1="95.5" y1="139" x2="95.5" y2="167"/>
	<line class="st2" x1="36.5" y1="140" x2="36.5" y2="168"/>
	<line class="st2" x1="156.5" y1="140" x2="156.5" y2="168"/>
</g>
</svg>
